<?xml version="1.0" encoding="UTF-8" standalone="no"?>
<!DOCTYPE svg PUBLIC "-//W3C//DTD SVG 1.1//EN"
 "http://www.w3.org/Graphics/SVG/1.1/DTD/svg11.dtd">
<!-- Generated by graphviz version 2.30.1 (20180420.1509)
 -->
<!-- Title: snakemake_dag Pages: 1 -->
<svg width="2942pt" height="548pt"
 viewBox="0.00 0.00 2942.00 548.00" xmlns="http://www.w3.org/2000/svg" xmlns:xlink="http://www.w3.org/1999/xlink">
<g id="graph0" class="graph" transform="scale(1 1) rotate(0) translate(4 544)">
<title>snakemake_dag</title>
<polygon fill="white" stroke="white" points="-4,5 -4,-544 2939,-544 2939,5 -4,5"/>
<!-- 0 -->
<g id="node1" class="node"><title>0</title>
<path fill="none" stroke="#56d863" stroke-width="2" stroke-dasharray="5,2" d="M1270,-36C1270,-36 1240,-36 1240,-36 1234,-36 1228,-30 1228,-24 1228,-24 1228,-12 1228,-12 1228,-6 1234,-0 1240,-0 1240,-0 1270,-0 1270,-0 1276,-0 1282,-6 1282,-12 1282,-12 1282,-24 1282,-24 1282,-30 1276,-36 1270,-36"/>
<text text-anchor="middle" x="1255" y="-15.5" font-family="sans" font-size="10.00">all</text>
</g>
<!-- 1 -->
<g id="node2" class="node"><title>1</title>
<path fill="none" stroke="#56d8b9" stroke-width="2" stroke-dasharray="5,2" d="M782,-540C782,-540 736,-540 736,-540 730,-540 724,-534 724,-528 724,-528 724,-516 724,-516 724,-510 730,-504 736,-504 736,-504 782,-504 782,-504 788,-504 794,-510 794,-516 794,-516 794,-528 794,-528 794,-534 788,-540 782,-540"/>
<text text-anchor="middle" x="759" y="-519.5" font-family="sans" font-size="10.00">link_inputs</text>
</g>
<!-- 1&#45;&gt;0 -->
<g id="edge1" class="edge"><title>1&#45;&gt;0</title>
<path fill="none" stroke="grey" stroke-width="2" d="M723.921,-519.343C615.869,-513.989 289.234,-495.867 187,-468 98.196,-443.794 0,-471.044 0,-379 0,-379 0,-379 0,-161 0,-115.188 12.7779,-95.6725 52,-72 103.077,-41.1722 1019.8,-23.1777 1217.59,-19.6445"/>
<polygon fill="grey" stroke="grey" points="1217.83,-23.1409 1227.76,-19.4642 1217.7,-16.142 1217.83,-23.1409"/>
</g>
<!-- 2 -->
<g id="node3" class="node"><title>2</title>
<path fill="none" stroke="#56d8d0" stroke-width="2" stroke-dasharray="5,2" d="M438,-468C438,-468 208,-468 208,-468 202,-468 196,-462 196,-456 196,-456 196,-444 196,-444 196,-438 202,-432 208,-432 208,-432 438,-432 438,-432 444,-432 450,-438 450,-444 450,-444 450,-456 450,-456 450,-462 444,-468 438,-468"/>
<text text-anchor="middle" x="323" y="-453" font-family="sans" font-size="10.00">trim_small</text>
<text text-anchor="middle" x="323" y="-442" font-family="sans" font-size="10.00">filename: 230120_09_embryo_rhodnius_rep1_R1</text>
</g>
<!-- 1&#45;&gt;2 -->
<g id="edge34" class="edge"><title>1&#45;&gt;2</title>
<path fill="none" stroke="grey" stroke-width="2" d="M723.69,-515.331C662.503,-505.507 534.215,-484.911 439.199,-469.656"/>
<polygon fill="grey" stroke="grey" points="439.669,-466.187 429.241,-468.057 438.56,-473.098 439.669,-466.187"/>
</g>
<!-- 3 -->
<g id="node4" class="node"><title>3</title>
<path fill="none" stroke="#56d8d0" stroke-width="2" stroke-dasharray="5,2" d="M874,-468C874,-468 644,-468 644,-468 638,-468 632,-462 632,-456 632,-456 632,-444 632,-444 632,-438 638,-432 644,-432 644,-432 874,-432 874,-432 880,-432 886,-438 886,-444 886,-444 886,-456 886,-456 886,-462 880,-468 874,-468"/>
<text text-anchor="middle" x="759" y="-453" font-family="sans" font-size="10.00">trim_small</text>
<text text-anchor="middle" x="759" y="-442" font-family="sans" font-size="10.00">filename: 230120_04_embryo_rhodnius_rep2_R1</text>
</g>
<!-- 1&#45;&gt;3 -->
<g id="edge35" class="edge"><title>1&#45;&gt;3</title>
<path fill="none" stroke="grey" stroke-width="2" d="M759,-503.697C759,-495.983 759,-486.712 759,-478.112"/>
<polygon fill="grey" stroke="grey" points="762.5,-478.104 759,-468.104 755.5,-478.104 762.5,-478.104"/>
</g>
<!-- 4 -->
<g id="node5" class="node"><title>4</title>
<path fill="none" stroke="#56d8d0" stroke-width="2" stroke-dasharray="5,2" d="M1530,-468C1530,-468 1304,-468 1304,-468 1298,-468 1292,-462 1292,-456 1292,-456 1292,-444 1292,-444 1292,-438 1298,-432 1304,-432 1304,-432 1530,-432 1530,-432 1536,-432 1542,-438 1542,-444 1542,-444 1542,-456 1542,-456 1542,-462 1536,-468 1530,-468"/>
<text text-anchor="middle" x="1417" y="-453" font-family="sans" font-size="10.00">trim_small</text>
<text text-anchor="middle" x="1417" y="-442" font-family="sans" font-size="10.00">filename: 230120_01_nymph_rhodnius_rep1_R1</text>
</g>
<!-- 1&#45;&gt;4 -->
<g id="edge36" class="edge"><title>1&#45;&gt;4</title>
<path fill="none" stroke="grey" stroke-width="2" d="M794.377,-517.236C884.689,-507.629 1127.51,-481.797 1281.85,-465.378"/>
<polygon fill="grey" stroke="grey" points="1282.31,-468.848 1291.89,-464.31 1281.57,-461.888 1282.31,-468.848"/>
</g>
<!-- 5 -->
<g id="node6" class="node"><title>5</title>
<path fill="none" stroke="#56d8d0" stroke-width="2" stroke-dasharray="5,2" d="M2036,-468C2036,-468 1810,-468 1810,-468 1804,-468 1798,-462 1798,-456 1798,-456 1798,-444 1798,-444 1798,-438 1804,-432 1810,-432 1810,-432 2036,-432 2036,-432 2042,-432 2048,-438 2048,-444 2048,-444 2048,-456 2048,-456 2048,-462 2042,-468 2036,-468"/>
<text text-anchor="middle" x="1923" y="-453" font-family="sans" font-size="10.00">trim_small</text>
<text text-anchor="middle" x="1923" y="-442" font-family="sans" font-size="10.00">filename: 230120_10_nymph_rhodnius_rep2_R1</text>
</g>
<!-- 1&#45;&gt;5 -->
<g id="edge37" class="edge"><title>1&#45;&gt;5</title>
<path fill="none" stroke="grey" stroke-width="2" d="M794.153,-518.886C942.396,-509.971 1521.11,-475.169 1787.47,-459.151"/>
<polygon fill="grey" stroke="grey" points="1787.81,-462.636 1797.58,-458.542 1787.39,-455.649 1787.81,-462.636"/>
</g>
<!-- 2&#45;&gt;0 -->
<g id="edge2" class="edge"><title>2&#45;&gt;0</title>
<path fill="none" stroke="grey" stroke-width="2" d="M195.66,-436.969C137.566,-428.887 77.2395,-415.965 57,-396 28.2052,-367.596 38,-347.447 38,-307 38,-307 38,-307 38,-161 38,-44.7313 170.068,-95.194 284,-72 467.367,-34.6706 1061.27,-22.2491 1217.21,-19.5895"/>
<polygon fill="grey" stroke="grey" points="1217.73,-23.0814 1227.67,-19.4147 1217.61,-16.0824 1217.73,-23.0814"/>
</g>
<!-- 7 -->
<g id="node8" class="node"><title>7</title>
<path fill="none" stroke="#56c1d8" stroke-width="2" stroke-dasharray="5,2" d="M566.25,-396C566.25,-396 343.75,-396 343.75,-396 337.75,-396 331.75,-390 331.75,-384 331.75,-384 331.75,-372 331.75,-372 331.75,-366 337.75,-360 343.75,-360 343.75,-360 566.25,-360 566.25,-360 572.25,-360 578.25,-366 578.25,-372 578.25,-372 578.25,-384 578.25,-384 578.25,-390 572.25,-396 566.25,-396"/>
<text text-anchor="middle" x="455" y="-381" font-family="sans" font-size="10.00">bowtie_hic_genome</text>
<text text-anchor="middle" x="455" y="-370" font-family="sans" font-size="10.00">sample: 230120_09_embryo_rhodnius_rep1_R1</text>
</g>
<!-- 2&#45;&gt;7 -->
<g id="edge39" class="edge"><title>2&#45;&gt;7</title>
<path fill="none" stroke="grey" stroke-width="2" d="M355.291,-431.876C372.869,-422.554 394.809,-410.919 413.629,-400.939"/>
<polygon fill="grey" stroke="grey" points="415.39,-403.967 422.585,-396.19 412.111,-397.783 415.39,-403.967"/>
</g>
<!-- 23 -->
<g id="node24" class="node"><title>23</title>
<path fill="none" stroke="#d85656" stroke-width="2" stroke-dasharray="5,2" d="M301.25,-396C301.25,-396 78.75,-396 78.75,-396 72.75,-396 66.75,-390 66.75,-384 66.75,-384 66.75,-372 66.75,-372 66.75,-366 72.75,-360 78.75,-360 78.75,-360 301.25,-360 301.25,-360 307.25,-360 313.25,-366 313.25,-372 313.25,-372 313.25,-384 313.25,-384 313.25,-390 307.25,-396 301.25,-396"/>
<text text-anchor="middle" x="190" y="-381" font-family="sans" font-size="10.00">bowtie_vb_genome</text>
<text text-anchor="middle" x="190" y="-370" font-family="sans" font-size="10.00">sample: 230120_09_embryo_rhodnius_rep1_R1</text>
</g>
<!-- 2&#45;&gt;23 -->
<g id="edge58" class="edge"><title>2&#45;&gt;23</title>
<path fill="none" stroke="grey" stroke-width="2" d="M290.465,-431.876C272.753,-422.554 250.647,-410.919 231.684,-400.939"/>
<polygon fill="grey" stroke="grey" points="233.14,-397.75 222.661,-396.19 229.88,-403.944 233.14,-397.75"/>
</g>
<!-- 3&#45;&gt;0 -->
<g id="edge3" class="edge"><title>3&#45;&gt;0</title>
<path fill="none" stroke="grey" stroke-width="2" d="M673.358,-431.922C654.762,-424.09 637.298,-412.665 626,-396 612.889,-376.661 550.441,-170.623 648,-72 688.119,-31.4435 1091.61,-21.6039 1217.61,-19.5114"/>
<polygon fill="grey" stroke="grey" points="1217.96,-23.0063 1227.91,-19.3476 1217.85,-16.0072 1217.96,-23.0063"/>
</g>
<!-- 9 -->
<g id="node10" class="node"><title>9</title>
<path fill="none" stroke="#56c1d8" stroke-width="2" stroke-dasharray="5,2" d="M870.25,-396C870.25,-396 647.75,-396 647.75,-396 641.75,-396 635.75,-390 635.75,-384 635.75,-384 635.75,-372 635.75,-372 635.75,-366 641.75,-360 647.75,-360 647.75,-360 870.25,-360 870.25,-360 876.25,-360 882.25,-366 882.25,-372 882.25,-372 882.25,-384 882.25,-384 882.25,-390 876.25,-396 870.25,-396"/>
<text text-anchor="middle" x="759" y="-381" font-family="sans" font-size="10.00">bowtie_hic_genome</text>
<text text-anchor="middle" x="759" y="-370" font-family="sans" font-size="10.00">sample: 230120_04_embryo_rhodnius_rep2_R1</text>
</g>
<!-- 3&#45;&gt;9 -->
<g id="edge41" class="edge"><title>3&#45;&gt;9</title>
<path fill="none" stroke="grey" stroke-width="2" d="M759,-431.697C759,-423.983 759,-414.712 759,-406.112"/>
<polygon fill="grey" stroke="grey" points="762.5,-406.104 759,-396.104 755.5,-406.104 762.5,-406.104"/>
</g>
<!-- 25 -->
<g id="node26" class="node"><title>25</title>
<path fill="none" stroke="#d85656" stroke-width="2" stroke-dasharray="5,2" d="M1135.25,-396C1135.25,-396 912.75,-396 912.75,-396 906.75,-396 900.75,-390 900.75,-384 900.75,-384 900.75,-372 900.75,-372 900.75,-366 906.75,-360 912.75,-360 912.75,-360 1135.25,-360 1135.25,-360 1141.25,-360 1147.25,-366 1147.25,-372 1147.25,-372 1147.25,-384 1147.25,-384 1147.25,-390 1141.25,-396 1135.25,-396"/>
<text text-anchor="middle" x="1024" y="-381" font-family="sans" font-size="10.00">bowtie_vb_genome</text>
<text text-anchor="middle" x="1024" y="-370" font-family="sans" font-size="10.00">sample: 230120_04_embryo_rhodnius_rep2_R1</text>
</g>
<!-- 3&#45;&gt;25 -->
<g id="edge60" class="edge"><title>3&#45;&gt;25</title>
<path fill="none" stroke="grey" stroke-width="2" d="M823.487,-431.966C861.48,-421.93 909.707,-409.19 949.343,-398.721"/>
<polygon fill="grey" stroke="grey" points="950.449,-402.049 959.223,-396.111 948.661,-395.281 950.449,-402.049"/>
</g>
<!-- 4&#45;&gt;0 -->
<g id="edge4" class="edge"><title>4&#45;&gt;0</title>
<path fill="none" stroke="grey" stroke-width="2" d="M1542.35,-438.541C1600.28,-430.845 1660.19,-417.793 1678,-396 1688.13,-383.612 1686.08,-373.811 1678,-360 1661.52,-331.829 1633.34,-350.286 1614,-324 1590.03,-291.422 1595,-275.447 1595,-235 1595,-235 1595,-235 1595,-161 1595,-30.9904 1380.71,-17.9107 1292.37,-18.0417"/>
<polygon fill="grey" stroke="grey" points="1292.22,-14.5426 1282.25,-18.1162 1292.27,-21.5424 1292.22,-14.5426"/>
</g>
<!-- 11 -->
<g id="node12" class="node"><title>11</title>
<path fill="none" stroke="#56c1d8" stroke-width="2" stroke-dasharray="5,2" d="M1657.25,-396C1657.25,-396 1438.75,-396 1438.75,-396 1432.75,-396 1426.75,-390 1426.75,-384 1426.75,-384 1426.75,-372 1426.75,-372 1426.75,-366 1432.75,-360 1438.75,-360 1438.75,-360 1657.25,-360 1657.25,-360 1663.25,-360 1669.25,-366 1669.25,-372 1669.25,-372 1669.25,-384 1669.25,-384 1669.25,-390 1663.25,-396 1657.25,-396"/>
<text text-anchor="middle" x="1548" y="-381" font-family="sans" font-size="10.00">bowtie_hic_genome</text>
<text text-anchor="middle" x="1548" y="-370" font-family="sans" font-size="10.00">sample: 230120_01_nymph_rhodnius_rep1_R1</text>
</g>
<!-- 4&#45;&gt;11 -->
<g id="edge43" class="edge"><title>4&#45;&gt;11</title>
<path fill="none" stroke="grey" stroke-width="2" d="M1449.05,-431.876C1466.49,-422.554 1488.27,-410.919 1506.94,-400.939"/>
<polygon fill="grey" stroke="grey" points="1508.66,-403.99 1515.83,-396.19 1505.36,-397.816 1508.66,-403.99"/>
</g>
<!-- 27 -->
<g id="node28" class="node"><title>27</title>
<path fill="none" stroke="#d85656" stroke-width="2" stroke-dasharray="5,2" d="M1396.25,-396C1396.25,-396 1177.75,-396 1177.75,-396 1171.75,-396 1165.75,-390 1165.75,-384 1165.75,-384 1165.75,-372 1165.75,-372 1165.75,-366 1171.75,-360 1177.75,-360 1177.75,-360 1396.25,-360 1396.25,-360 1402.25,-360 1408.25,-366 1408.25,-372 1408.25,-372 1408.25,-384 1408.25,-384 1408.25,-390 1402.25,-396 1396.25,-396"/>
<text text-anchor="middle" x="1287" y="-381" font-family="sans" font-size="10.00">bowtie_vb_genome</text>
<text text-anchor="middle" x="1287" y="-370" font-family="sans" font-size="10.00">sample: 230120_01_nymph_rhodnius_rep1_R1</text>
</g>
<!-- 4&#45;&gt;27 -->
<g id="edge62" class="edge"><title>4&#45;&gt;27</title>
<path fill="none" stroke="grey" stroke-width="2" d="M1385.2,-431.876C1367.89,-422.554 1346.28,-410.919 1327.74,-400.939"/>
<polygon fill="grey" stroke="grey" points="1329.39,-397.849 1318.92,-396.19 1326.07,-404.012 1329.39,-397.849"/>
</g>
<!-- 5&#45;&gt;0 -->
<g id="edge5" class="edge"><title>5&#45;&gt;0</title>
<path fill="none" stroke="grey" stroke-width="2" d="M1955.16,-431.791C1969.21,-422.811 1984.77,-410.63 1995,-396 2023.01,-355.921 2036.43,-332.425 2016,-288 1985.18,-220.991 1945.91,-228.11 1890,-180 1834.35,-132.11 1832.39,-101.135 1765,-72 1679.87,-35.1957 1395.43,-23.1916 1292.54,-19.999"/>
<polygon fill="grey" stroke="grey" points="1292.42,-16.4939 1282.32,-19.6925 1292.21,-23.4907 1292.42,-16.4939"/>
</g>
<!-- 13 -->
<g id="node14" class="node"><title>13</title>
<path fill="none" stroke="#56c1d8" stroke-width="2" stroke-dasharray="5,2" d="M1957.25,-396C1957.25,-396 1738.75,-396 1738.75,-396 1732.75,-396 1726.75,-390 1726.75,-384 1726.75,-384 1726.75,-372 1726.75,-372 1726.75,-366 1732.75,-360 1738.75,-360 1738.75,-360 1957.25,-360 1957.25,-360 1963.25,-360 1969.25,-366 1969.25,-372 1969.25,-372 1969.25,-384 1969.25,-384 1969.25,-390 1963.25,-396 1957.25,-396"/>
<text text-anchor="middle" x="1848" y="-381" font-family="sans" font-size="10.00">bowtie_hic_genome</text>
<text text-anchor="middle" x="1848" y="-370" font-family="sans" font-size="10.00">sample: 230120_10_nymph_rhodnius_rep2_R1</text>
</g>
<!-- 5&#45;&gt;13 -->
<g id="edge45" class="edge"><title>5&#45;&gt;13</title>
<path fill="none" stroke="grey" stroke-width="2" d="M1904.46,-431.697C1895.2,-423.05 1883.84,-412.449 1873.74,-403.027"/>
<polygon fill="grey" stroke="grey" points="1876.02,-400.369 1866.33,-396.104 1871.25,-405.486 1876.02,-400.369"/>
</g>
<!-- 29 -->
<g id="node30" class="node"><title>29</title>
<path fill="none" stroke="#d85656" stroke-width="2" stroke-dasharray="5,2" d="M1995.25,-324C1995.25,-324 1776.75,-324 1776.75,-324 1770.75,-324 1764.75,-318 1764.75,-312 1764.75,-312 1764.75,-300 1764.75,-300 1764.75,-294 1770.75,-288 1776.75,-288 1776.75,-288 1995.25,-288 1995.25,-288 2001.25,-288 2007.25,-294 2007.25,-300 2007.25,-300 2007.25,-312 2007.25,-312 2007.25,-318 2001.25,-324 1995.25,-324"/>
<text text-anchor="middle" x="1886" y="-309" font-family="sans" font-size="10.00">bowtie_vb_genome</text>
<text text-anchor="middle" x="1886" y="-298" font-family="sans" font-size="10.00">sample: 230120_10_nymph_rhodnius_rep2_R1</text>
</g>
<!-- 5&#45;&gt;29 -->
<g id="edge64" class="edge"><title>5&#45;&gt;29</title>
<path fill="none" stroke="grey" stroke-width="2" d="M1948.38,-431.955C1959.71,-422.786 1971.88,-410.4 1978,-396 1984.26,-381.275 1986.01,-373.853 1978,-360 1970.43,-346.904 1958.26,-336.757 1945.22,-329.016"/>
<polygon fill="grey" stroke="grey" points="1946.55,-325.754 1936.09,-324.033 1943.19,-331.898 1946.55,-325.754"/>
</g>
<!-- 6 -->
<g id="node7" class="node"><title>6</title>
<path fill="none" stroke="#b6d856" stroke-width="2" stroke-dasharray="5,2" d="M575.25,-324C575.25,-324 476.75,-324 476.75,-324 470.75,-324 464.75,-318 464.75,-312 464.75,-312 464.75,-300 464.75,-300 464.75,-294 470.75,-288 476.75,-288 476.75,-288 575.25,-288 575.25,-288 581.25,-288 587.25,-294 587.25,-300 587.25,-300 587.25,-312 587.25,-312 587.25,-318 581.25,-324 575.25,-324"/>
<text text-anchor="middle" x="526" y="-303.5" font-family="sans" font-size="10.00">samtools_hic_convert</text>
</g>
<!-- 6&#45;&gt;0 -->
<g id="edge6" class="edge"><title>6&#45;&gt;0</title>
<path fill="none" stroke="grey" stroke-width="2" d="M530.067,-287.78C542.047,-238.603 578.647,-99.3084 615,-72 663.283,-35.7292 1088.25,-22.8901 1217.72,-19.8005"/>
<polygon fill="grey" stroke="grey" points="1218.01,-23.2949 1227.93,-19.5628 1217.85,-16.2968 1218.01,-23.2949"/>
</g>
<!-- 14 -->
<g id="node15" class="node"><title>14</title>
<path fill="none" stroke="#56a9d8" stroke-width="2" stroke-dasharray="5,2" d="M551,-108C551,-108 467,-108 467,-108 461,-108 455,-102 455,-96 455,-96 455,-84 455,-84 455,-78 461,-72 467,-72 467,-72 551,-72 551,-72 557,-72 563,-78 563,-84 563,-84 563,-96 563,-96 563,-102 557,-108 551,-108"/>
<text text-anchor="middle" x="509" y="-87.5" font-family="sans" font-size="10.00">count_mapped_hic</text>
</g>
<!-- 6&#45;&gt;14 -->
<g id="edge46" class="edge"><title>6&#45;&gt;14</title>
<path fill="none" stroke="grey" stroke-width="2" d="M524.638,-287.849C521.697,-250.832 514.734,-163.181 511.176,-118.386"/>
<polygon fill="grey" stroke="grey" points="514.65,-117.924 510.369,-108.232 507.672,-118.478 514.65,-117.924"/>
</g>
<!-- 18 -->
<g id="node19" class="node"><title>18</title>
<path fill="none" stroke="#568ad8" stroke-width="2" stroke-dasharray="5,2" d="M1134,-252C1134,-252 1046,-252 1046,-252 1040,-252 1034,-246 1034,-240 1034,-240 1034,-228 1034,-228 1034,-222 1040,-216 1046,-216 1046,-216 1134,-216 1134,-216 1140,-216 1146,-222 1146,-228 1146,-228 1146,-240 1146,-240 1146,-246 1140,-252 1134,-252"/>
<text text-anchor="middle" x="1090" y="-231.5" font-family="sans" font-size="10.00">multiBamSummary</text>
</g>
<!-- 6&#45;&gt;18 -->
<g id="edge50" class="edge"><title>6&#45;&gt;18</title>
<path fill="none" stroke="grey" stroke-width="2" d="M587.389,-298.975C711.053,-286.763 981.97,-259.607 1024,-252 1024.1,-251.982 1024.2,-251.963 1024.31,-251.944"/>
<polygon fill="grey" stroke="grey" points="1024.83,-255.41 1033.95,-250.03 1023.46,-248.543 1024.83,-255.41"/>
</g>
<!-- 7&#45;&gt;6 -->
<g id="edge38" class="edge"><title>7&#45;&gt;6</title>
<path fill="none" stroke="grey" stroke-width="2" d="M472.551,-359.697C481.234,-351.135 491.863,-340.656 501.348,-331.304"/>
<polygon fill="grey" stroke="grey" points="503.988,-333.617 508.651,-324.104 499.073,-328.633 503.988,-333.617"/>
</g>
<!-- 8 -->
<g id="node9" class="node"><title>8</title>
<path fill="none" stroke="#b6d856" stroke-width="2" stroke-dasharray="5,2" d="M825.25,-324C825.25,-324 726.75,-324 726.75,-324 720.75,-324 714.75,-318 714.75,-312 714.75,-312 714.75,-300 714.75,-300 714.75,-294 720.75,-288 726.75,-288 726.75,-288 825.25,-288 825.25,-288 831.25,-288 837.25,-294 837.25,-300 837.25,-300 837.25,-312 837.25,-312 837.25,-318 831.25,-324 825.25,-324"/>
<text text-anchor="middle" x="776" y="-303.5" font-family="sans" font-size="10.00">samtools_hic_convert</text>
</g>
<!-- 8&#45;&gt;0 -->
<g id="edge7" class="edge"><title>8&#45;&gt;0</title>
<path fill="none" stroke="grey" stroke-width="2" d="M776.08,-287.679C776.69,-238.867 781.168,-101.794 812,-72 841.016,-43.9599 1116.3,-26.4525 1217.72,-20.909"/>
<polygon fill="grey" stroke="grey" points="1218.02,-24.3981 1227.82,-20.3655 1217.64,-17.4082 1218.02,-24.3981"/>
</g>
<!-- 15 -->
<g id="node16" class="node"><title>15</title>
<path fill="none" stroke="#56a9d8" stroke-width="2" stroke-dasharray="5,2" d="M753,-108C753,-108 669,-108 669,-108 663,-108 657,-102 657,-96 657,-96 657,-84 657,-84 657,-78 663,-72 669,-72 669,-72 753,-72 753,-72 759,-72 765,-78 765,-84 765,-84 765,-96 765,-96 765,-102 759,-108 753,-108"/>
<text text-anchor="middle" x="711" y="-87.5" font-family="sans" font-size="10.00">count_mapped_hic</text>
</g>
<!-- 8&#45;&gt;15 -->
<g id="edge47" class="edge"><title>8&#45;&gt;15</title>
<path fill="none" stroke="grey" stroke-width="2" d="M770.791,-287.849C759.499,-250.675 732.699,-162.439 719.146,-117.82"/>
<polygon fill="grey" stroke="grey" points="722.489,-116.784 716.234,-108.232 715.792,-118.818 722.489,-116.784"/>
</g>
<!-- 8&#45;&gt;18 -->
<g id="edge51" class="edge"><title>8&#45;&gt;18</title>
<path fill="none" stroke="grey" stroke-width="2" d="M837.309,-292.637C887.596,-282.319 960.574,-266.939 1024,-252 1024.1,-251.976 1024.2,-251.952 1024.3,-251.929"/>
<polygon fill="grey" stroke="grey" points="1024.97,-255.369 1033.87,-249.627 1023.33,-248.563 1024.97,-255.369"/>
</g>
<!-- 9&#45;&gt;8 -->
<g id="edge40" class="edge"><title>9&#45;&gt;8</title>
<path fill="none" stroke="grey" stroke-width="2" d="M763.202,-359.697C765.096,-351.898 767.377,-342.509 769.484,-333.829"/>
<polygon fill="grey" stroke="grey" points="772.887,-334.648 771.846,-324.104 766.085,-332.996 772.887,-334.648"/>
</g>
<!-- 10 -->
<g id="node11" class="node"><title>10</title>
<path fill="none" stroke="#b6d856" stroke-width="2" stroke-dasharray="5,2" d="M1517.25,-324C1517.25,-324 1418.75,-324 1418.75,-324 1412.75,-324 1406.75,-318 1406.75,-312 1406.75,-312 1406.75,-300 1406.75,-300 1406.75,-294 1412.75,-288 1418.75,-288 1418.75,-288 1517.25,-288 1517.25,-288 1523.25,-288 1529.25,-294 1529.25,-300 1529.25,-300 1529.25,-312 1529.25,-312 1529.25,-318 1523.25,-324 1517.25,-324"/>
<text text-anchor="middle" x="1468" y="-303.5" font-family="sans" font-size="10.00">samtools_hic_convert</text>
</g>
<!-- 10&#45;&gt;0 -->
<g id="edge8" class="edge"><title>10&#45;&gt;0</title>
<path fill="none" stroke="grey" stroke-width="2" d="M1460.52,-287.704C1456.53,-277.522 1452.03,-264.272 1450,-252 1436.94,-172.922 1492.72,-131.485 1439,-72 1401.62,-30.6046 1334.2,-20.7041 1292.17,-18.7964"/>
<polygon fill="grey" stroke="grey" points="1292.18,-15.2948 1282.07,-18.4693 1291.95,-22.2911 1292.18,-15.2948"/>
</g>
<!-- 16 -->
<g id="node17" class="node"><title>16</title>
<path fill="none" stroke="#56a9d8" stroke-width="2" stroke-dasharray="5,2" d="M1555,-252C1555,-252 1471,-252 1471,-252 1465,-252 1459,-246 1459,-240 1459,-240 1459,-228 1459,-228 1459,-222 1465,-216 1471,-216 1471,-216 1555,-216 1555,-216 1561,-216 1567,-222 1567,-228 1567,-228 1567,-240 1567,-240 1567,-246 1561,-252 1555,-252"/>
<text text-anchor="middle" x="1513" y="-231.5" font-family="sans" font-size="10.00">count_mapped_hic</text>
</g>
<!-- 10&#45;&gt;16 -->
<g id="edge48" class="edge"><title>10&#45;&gt;16</title>
<path fill="none" stroke="grey" stroke-width="2" d="M1479.12,-287.697C1484.36,-279.559 1490.7,-269.689 1496.48,-260.701"/>
<polygon fill="grey" stroke="grey" points="1499.54,-262.409 1502,-252.104 1493.65,-258.623 1499.54,-262.409"/>
</g>
<!-- 10&#45;&gt;18 -->
<g id="edge52" class="edge"><title>10&#45;&gt;18</title>
<path fill="none" stroke="grey" stroke-width="2" d="M1406.43,-293.597C1337.74,-280.877 1227.01,-260.372 1156.41,-247.299"/>
<polygon fill="grey" stroke="grey" points="1156.77,-243.805 1146.3,-245.426 1155.49,-250.688 1156.77,-243.805"/>
</g>
<!-- 11&#45;&gt;10 -->
<g id="edge42" class="edge"><title>11&#45;&gt;10</title>
<path fill="none" stroke="grey" stroke-width="2" d="M1528.22,-359.697C1518.25,-350.965 1505.99,-340.24 1495.14,-330.75"/>
<polygon fill="grey" stroke="grey" points="1497.38,-328.055 1487.55,-324.104 1492.77,-333.323 1497.38,-328.055"/>
</g>
<!-- 12 -->
<g id="node13" class="node"><title>12</title>
<path fill="none" stroke="#b6d856" stroke-width="2" stroke-dasharray="5,2" d="M1734.25,-324C1734.25,-324 1635.75,-324 1635.75,-324 1629.75,-324 1623.75,-318 1623.75,-312 1623.75,-312 1623.75,-300 1623.75,-300 1623.75,-294 1629.75,-288 1635.75,-288 1635.75,-288 1734.25,-288 1734.25,-288 1740.25,-288 1746.25,-294 1746.25,-300 1746.25,-300 1746.25,-312 1746.25,-312 1746.25,-318 1740.25,-324 1734.25,-324"/>
<text text-anchor="middle" x="1685" y="-303.5" font-family="sans" font-size="10.00">samtools_hic_convert</text>
</g>
<!-- 12&#45;&gt;0 -->
<g id="edge9" class="edge"><title>12&#45;&gt;0</title>
<path fill="none" stroke="grey" stroke-width="2" d="M1672.19,-287.628C1665.34,-277.638 1657.26,-264.602 1652,-252 1620.3,-176.105 1669.6,-127.61 1609,-72 1563.32,-30.0813 1373.78,-21.3099 1292.39,-19.4799"/>
<polygon fill="grey" stroke="grey" points="1292.18,-15.9749 1282.11,-19.273 1292.04,-22.9735 1292.18,-15.9749"/>
</g>
<!-- 17 -->
<g id="node18" class="node"><title>17</title>
<path fill="none" stroke="#56a9d8" stroke-width="2" stroke-dasharray="5,2" d="M1757,-252C1757,-252 1673,-252 1673,-252 1667,-252 1661,-246 1661,-240 1661,-240 1661,-228 1661,-228 1661,-222 1667,-216 1673,-216 1673,-216 1757,-216 1757,-216 1763,-216 1769,-222 1769,-228 1769,-228 1769,-240 1769,-240 1769,-246 1763,-252 1757,-252"/>
<text text-anchor="middle" x="1715" y="-231.5" font-family="sans" font-size="10.00">count_mapped_hic</text>
</g>
<!-- 12&#45;&gt;17 -->
<g id="edge49" class="edge"><title>12&#45;&gt;17</title>
<path fill="none" stroke="grey" stroke-width="2" d="M1692.42,-287.697C1695.79,-279.813 1699.87,-270.304 1703.62,-261.546"/>
<polygon fill="grey" stroke="grey" points="1706.95,-262.675 1707.67,-252.104 1700.51,-259.917 1706.95,-262.675"/>
</g>
<!-- 12&#45;&gt;18 -->
<g id="edge53" class="edge"><title>12&#45;&gt;18</title>
<path fill="none" stroke="grey" stroke-width="2" d="M1623.51,-297.702C1597.19,-294.626 1566.09,-291.057 1538,-288 1381.22,-270.941 1341.17,-273.905 1185,-252 1175.64,-250.687 1165.79,-249.128 1156.13,-247.494"/>
<polygon fill="grey" stroke="grey" points="1156.6,-244.023 1146.15,-245.771 1155.41,-250.921 1156.6,-244.023"/>
</g>
<!-- 13&#45;&gt;12 -->
<g id="edge44" class="edge"><title>13&#45;&gt;12</title>
<path fill="none" stroke="grey" stroke-width="2" d="M1808.13,-359.876C1785.84,-350.307 1757.88,-338.3 1734.24,-328.148"/>
<polygon fill="grey" stroke="grey" points="1735.31,-324.798 1724.74,-324.068 1732.55,-331.23 1735.31,-324.798"/>
</g>
<!-- 14&#45;&gt;0 -->
<g id="edge10" class="edge"><title>14&#45;&gt;0</title>
<path fill="none" stroke="grey" stroke-width="2" d="M563.021,-74.6301C567.729,-73.6409 572.436,-72.7435 577,-72 819.26,-32.5324 1115.18,-22.2144 1217.84,-19.7302"/>
<polygon fill="grey" stroke="grey" points="1218.08,-23.2255 1228,-19.495 1217.92,-16.2274 1218.08,-23.2255"/>
</g>
<!-- 15&#45;&gt;0 -->
<g id="edge11" class="edge"><title>15&#45;&gt;0</title>
<path fill="none" stroke="grey" stroke-width="2" d="M765.049,-74.7931C769.75,-73.7685 774.449,-72.8185 779,-72 941.123,-42.8446 1137.38,-27.0743 1217.85,-21.4325"/>
<polygon fill="grey" stroke="grey" points="1218.24,-24.914 1227.98,-20.7335 1217.76,-17.9306 1218.24,-24.914"/>
</g>
<!-- 16&#45;&gt;0 -->
<g id="edge12" class="edge"><title>16&#45;&gt;0</title>
<path fill="none" stroke="grey" stroke-width="2" d="M1517.89,-215.987C1526.05,-183.663 1538.28,-112.949 1503,-72 1475.97,-40.6257 1354.75,-26.7422 1292.36,-21.5854"/>
<polygon fill="grey" stroke="grey" points="1292.4,-18.0775 1282.16,-20.7763 1291.85,-25.0556 1292.4,-18.0775"/>
</g>
<!-- 17&#45;&gt;0 -->
<g id="edge13" class="edge"><title>17&#45;&gt;0</title>
<path fill="none" stroke="grey" stroke-width="2" d="M1706.62,-215.937C1701.63,-205.608 1695.27,-192.131 1690,-180 1669.41,-132.614 1687.72,-103.804 1647,-72 1592.25,-29.2356 1379.22,-20.9622 1292.27,-19.3728"/>
<polygon fill="grey" stroke="grey" points="1292.12,-15.8701 1282.07,-19.2068 1292.01,-22.8692 1292.12,-15.8701"/>
</g>
<!-- 18&#45;&gt;0 -->
<g id="edge14" class="edge"><title>18&#45;&gt;0</title>
<path fill="none" stroke="grey" stroke-width="2" d="M1056.84,-215.882C1043.15,-207.058 1028.51,-194.976 1020,-180 996.222,-138.152 981.809,-109.485 1012,-72 1037.41,-40.4489 1156.13,-26.6756 1217.71,-21.5698"/>
<polygon fill="grey" stroke="grey" points="1218.11,-25.0496 1227.8,-20.7689 1217.55,-18.0715 1218.11,-25.0496"/>
</g>
<!-- 19 -->
<g id="node20" class="node"><title>19</title>
<path fill="none" stroke="#97d856" stroke-width="2" stroke-dasharray="5,2" d="M1106.25,-180C1106.25,-180 1041.75,-180 1041.75,-180 1035.75,-180 1029.75,-174 1029.75,-168 1029.75,-168 1029.75,-156 1029.75,-156 1029.75,-150 1035.75,-144 1041.75,-144 1041.75,-144 1106.25,-144 1106.25,-144 1112.25,-144 1118.25,-150 1118.25,-156 1118.25,-156 1118.25,-168 1118.25,-168 1118.25,-174 1112.25,-180 1106.25,-180"/>
<text text-anchor="middle" x="1074" y="-159.5" font-family="sans" font-size="10.00">plotCorrelation</text>
</g>
<!-- 18&#45;&gt;19 -->
<g id="edge54" class="edge"><title>18&#45;&gt;19</title>
<path fill="none" stroke="grey" stroke-width="2" d="M1086.04,-215.697C1084.28,-207.983 1082.16,-198.712 1080.2,-190.112"/>
<polygon fill="grey" stroke="grey" points="1083.55,-189.073 1077.91,-180.104 1076.73,-190.633 1083.55,-189.073"/>
</g>
<!-- 20 -->
<g id="node21" class="node"><title>20</title>
<path fill="none" stroke="#d88d56" stroke-width="2" stroke-dasharray="5,2" d="M1176.25,-108C1176.25,-108 1145.75,-108 1145.75,-108 1139.75,-108 1133.75,-102 1133.75,-96 1133.75,-96 1133.75,-84 1133.75,-84 1133.75,-78 1139.75,-72 1145.75,-72 1145.75,-72 1176.25,-72 1176.25,-72 1182.25,-72 1188.25,-78 1188.25,-84 1188.25,-84 1188.25,-96 1188.25,-96 1188.25,-102 1182.25,-108 1176.25,-108"/>
<text text-anchor="middle" x="1161" y="-87.5" font-family="sans" font-size="10.00">plotPCA</text>
</g>
<!-- 18&#45;&gt;20 -->
<g id="edge55" class="edge"><title>18&#45;&gt;20</title>
<path fill="none" stroke="grey" stroke-width="2" d="M1103.81,-215.545C1111.31,-205.529 1120.38,-192.494 1127,-180 1137.6,-159.991 1146.59,-135.932 1152.65,-117.876"/>
<polygon fill="grey" stroke="grey" points="1156.01,-118.863 1155.8,-108.27 1149.36,-116.686 1156.01,-118.863"/>
</g>
<!-- 19&#45;&gt;0 -->
<g id="edge15" class="edge"><title>19&#45;&gt;0</title>
<path fill="none" stroke="grey" stroke-width="2" d="M1079.74,-143.653C1087.1,-123.853 1101.65,-91.6706 1124,-72 1150.82,-48.3976 1189.51,-34.4978 1217.9,-26.8992"/>
<polygon fill="grey" stroke="grey" points="1219.01,-30.2274 1227.84,-24.3785 1217.29,-23.4418 1219.01,-30.2274"/>
</g>
<!-- 21 -->
<g id="node22" class="node"><title>21</title>
<path fill="none" stroke="#56d882" stroke-width="2" stroke-dasharray="5,2" d="M1065,-108C1065,-108 1033,-108 1033,-108 1027,-108 1021,-102 1021,-96 1021,-96 1021,-84 1021,-84 1021,-78 1027,-72 1033,-72 1033,-72 1065,-72 1065,-72 1071,-72 1077,-78 1077,-84 1077,-84 1077,-96 1077,-96 1077,-102 1071,-108 1065,-108"/>
<text text-anchor="middle" x="1049" y="-87.5" font-family="sans" font-size="10.00">multiQC</text>
</g>
<!-- 19&#45;&gt;21 -->
<g id="edge56" class="edge"><title>19&#45;&gt;21</title>
<path fill="none" stroke="grey" stroke-width="2" d="M1067.82,-143.697C1065,-135.813 1061.61,-126.304 1058.48,-117.546"/>
<polygon fill="grey" stroke="grey" points="1061.77,-116.345 1055.11,-108.104 1055.18,-118.699 1061.77,-116.345"/>
</g>
<!-- 20&#45;&gt;0 -->
<g id="edge16" class="edge"><title>20&#45;&gt;0</title>
<path fill="none" stroke="grey" stroke-width="2" d="M1184.24,-71.6966C1196.19,-62.796 1210.92,-51.8232 1223.85,-42.1989"/>
<polygon fill="grey" stroke="grey" points="1226.1,-44.8842 1232.03,-36.1043 1221.92,-39.2699 1226.1,-44.8842"/>
</g>
<!-- 21&#45;&gt;0 -->
<g id="edge17" class="edge"><title>21&#45;&gt;0</title>
<path fill="none" stroke="grey" stroke-width="2" d="M1077.36,-77.1988C1081.9,-75.4025 1086.56,-73.6122 1091,-72 1134.2,-56.3002 1184.6,-40.359 1218.01,-30.1187"/>
<polygon fill="grey" stroke="grey" points="1219.26,-33.3959 1227.81,-27.1303 1217.22,-26.7005 1219.26,-33.3959"/>
</g>
<!-- 22 -->
<g id="node23" class="node"><title>22</title>
<path fill="none" stroke="#d87556" stroke-width="2" stroke-dasharray="5,2" d="M435.25,-252C435.25,-252 338.75,-252 338.75,-252 332.75,-252 326.75,-246 326.75,-240 326.75,-240 326.75,-228 326.75,-228 326.75,-222 332.75,-216 338.75,-216 338.75,-216 435.25,-216 435.25,-216 441.25,-216 447.25,-222 447.25,-228 447.25,-228 447.25,-240 447.25,-240 447.25,-246 441.25,-252 435.25,-252"/>
<text text-anchor="middle" x="387" y="-231.5" font-family="sans" font-size="10.00">samtools_vb_convert</text>
</g>
<!-- 22&#45;&gt;0 -->
<g id="edge18" class="edge"><title>22&#45;&gt;0</title>
<path fill="none" stroke="grey" stroke-width="2" d="M387.537,-215.857C389.619,-181.991 399.525,-106.782 446,-72 508.314,-25.364 1066.9,-19.7508 1217.65,-19.0865"/>
<polygon fill="grey" stroke="grey" points="1217.8,-22.586 1227.79,-19.0467 1217.78,-15.5861 1217.8,-22.586"/>
</g>
<!-- 30 -->
<g id="node31" class="node"><title>30</title>
<path fill="none" stroke="#80d856" stroke-width="2" stroke-dasharray="5,2" d="M387,-108C387,-108 305,-108 305,-108 299,-108 293,-102 293,-96 293,-96 293,-84 293,-84 293,-78 299,-72 305,-72 305,-72 387,-72 387,-72 393,-72 399,-78 399,-84 399,-84 399,-96 399,-96 399,-102 393,-108 387,-108"/>
<text text-anchor="middle" x="346" y="-87.5" font-family="sans" font-size="10.00">count_mapped_vb</text>
</g>
<!-- 22&#45;&gt;30 -->
<g id="edge65" class="edge"><title>22&#45;&gt;30</title>
<path fill="none" stroke="grey" stroke-width="2" d="M382.054,-215.871C375.036,-191.564 362.117,-146.819 353.8,-118.013"/>
<polygon fill="grey" stroke="grey" points="357.1,-116.826 350.963,-108.189 350.375,-118.768 357.1,-116.826"/>
</g>
<!-- 35 -->
<g id="node36" class="node"><title>35</title>
<path fill="none" stroke="#ced856" stroke-width="2" stroke-dasharray="5,2" d="M1287,-180C1287,-180 1225,-180 1225,-180 1219,-180 1213,-174 1213,-168 1213,-168 1213,-156 1213,-156 1213,-150 1219,-144 1225,-144 1225,-144 1287,-144 1287,-144 1293,-144 1299,-150 1299,-156 1299,-156 1299,-168 1299,-168 1299,-174 1293,-180 1287,-180"/>
<text text-anchor="middle" x="1256" y="-159.5" font-family="sans" font-size="10.00">featureCounts</text>
</g>
<!-- 22&#45;&gt;35 -->
<g id="edge70" class="edge"><title>22&#45;&gt;35</title>
<path fill="none" stroke="grey" stroke-width="2" d="M447.536,-229.888C573.963,-223.12 875.202,-205.586 1127,-180 1151.96,-177.464 1179.54,-173.928 1202.78,-170.738"/>
<polygon fill="grey" stroke="grey" points="1203.36,-174.191 1212.78,-169.349 1202.39,-167.258 1203.36,-174.191"/>
</g>
<!-- 23&#45;&gt;22 -->
<g id="edge57" class="edge"><title>23&#45;&gt;22</title>
<path fill="none" stroke="grey" stroke-width="2" d="M213.763,-359.871C248.965,-334.497 315.061,-286.854 354.65,-258.318"/>
<polygon fill="grey" stroke="grey" points="357.087,-260.876 363.153,-252.189 352.994,-255.197 357.087,-260.876"/>
</g>
<!-- 24 -->
<g id="node25" class="node"><title>24</title>
<path fill="none" stroke="#d87556" stroke-width="2" stroke-dasharray="5,2" d="M1003.25,-252C1003.25,-252 906.75,-252 906.75,-252 900.75,-252 894.75,-246 894.75,-240 894.75,-240 894.75,-228 894.75,-228 894.75,-222 900.75,-216 906.75,-216 906.75,-216 1003.25,-216 1003.25,-216 1009.25,-216 1015.25,-222 1015.25,-228 1015.25,-228 1015.25,-240 1015.25,-240 1015.25,-246 1009.25,-252 1003.25,-252"/>
<text text-anchor="middle" x="955" y="-231.5" font-family="sans" font-size="10.00">samtools_vb_convert</text>
</g>
<!-- 24&#45;&gt;0 -->
<g id="edge19" class="edge"><title>24&#45;&gt;0</title>
<path fill="none" stroke="grey" stroke-width="2" d="M953.428,-215.818C951.443,-182.883 952.232,-110.707 992,-72 1023.7,-41.1491 1153.12,-26.9027 1217.82,-21.6039"/>
<polygon fill="grey" stroke="grey" points="1218.3,-25.0769 1227.99,-20.8008 1217.75,-18.0986 1218.3,-25.0769"/>
</g>
<!-- 31 -->
<g id="node32" class="node"><title>31</title>
<path fill="none" stroke="#80d856" stroke-width="2" stroke-dasharray="5,2" d="M915,-108C915,-108 833,-108 833,-108 827,-108 821,-102 821,-96 821,-96 821,-84 821,-84 821,-78 827,-72 833,-72 833,-72 915,-72 915,-72 921,-72 927,-78 927,-84 927,-84 927,-96 927,-96 927,-102 921,-108 915,-108"/>
<text text-anchor="middle" x="874" y="-87.5" font-family="sans" font-size="10.00">count_mapped_vb</text>
</g>
<!-- 24&#45;&gt;31 -->
<g id="edge66" class="edge"><title>24&#45;&gt;31</title>
<path fill="none" stroke="grey" stroke-width="2" d="M945.23,-215.871C931.181,-191.244 905.167,-145.638 888.765,-116.885"/>
<polygon fill="grey" stroke="grey" points="891.8,-115.141 883.805,-108.189 885.72,-118.61 891.8,-115.141"/>
</g>
<!-- 24&#45;&gt;35 -->
<g id="edge71" class="edge"><title>24&#45;&gt;35</title>
<path fill="none" stroke="grey" stroke-width="2" d="M1015.32,-218.3C1018.59,-217.518 1021.84,-216.747 1025,-216 1086,-201.596 1156.19,-185.569 1203.04,-174.95"/>
<polygon fill="grey" stroke="grey" points="1203.98,-178.325 1212.96,-172.703 1202.44,-171.498 1203.98,-178.325"/>
</g>
<!-- 25&#45;&gt;24 -->
<g id="edge59" class="edge"><title>25&#45;&gt;24</title>
<path fill="none" stroke="grey" stroke-width="2" d="M1015.68,-359.871C1003.76,-335.35 981.741,-290.032 967.76,-261.259"/>
<polygon fill="grey" stroke="grey" points="970.871,-259.654 963.353,-252.189 964.575,-262.713 970.871,-259.654"/>
</g>
<!-- 26 -->
<g id="node27" class="node"><title>26</title>
<path fill="none" stroke="#d87556" stroke-width="2" stroke-dasharray="5,2" d="M1303.25,-252C1303.25,-252 1206.75,-252 1206.75,-252 1200.75,-252 1194.75,-246 1194.75,-240 1194.75,-240 1194.75,-228 1194.75,-228 1194.75,-222 1200.75,-216 1206.75,-216 1206.75,-216 1303.25,-216 1303.25,-216 1309.25,-216 1315.25,-222 1315.25,-228 1315.25,-228 1315.25,-240 1315.25,-240 1315.25,-246 1309.25,-252 1303.25,-252"/>
<text text-anchor="middle" x="1255" y="-231.5" font-family="sans" font-size="10.00">samtools_vb_convert</text>
</g>
<!-- 26&#45;&gt;0 -->
<g id="edge20" class="edge"><title>26&#45;&gt;0</title>
<path fill="none" stroke="grey" stroke-width="2" d="M1231.7,-215.819C1221.1,-206.538 1209.68,-194.094 1204,-180 1185.17,-133.267 1214.6,-76.7285 1235.98,-44.6063"/>
<polygon fill="grey" stroke="grey" points="1238.97,-46.4437 1241.76,-36.2221 1233.2,-42.4745 1238.97,-46.4437"/>
</g>
<!-- 32 -->
<g id="node33" class="node"><title>32</title>
<path fill="none" stroke="#80d856" stroke-width="2" stroke-dasharray="5,2" d="M1411,-180C1411,-180 1329,-180 1329,-180 1323,-180 1317,-174 1317,-168 1317,-168 1317,-156 1317,-156 1317,-150 1323,-144 1329,-144 1329,-144 1411,-144 1411,-144 1417,-144 1423,-150 1423,-156 1423,-156 1423,-168 1423,-168 1423,-174 1417,-180 1411,-180"/>
<text text-anchor="middle" x="1370" y="-159.5" font-family="sans" font-size="10.00">count_mapped_vb</text>
</g>
<!-- 26&#45;&gt;32 -->
<g id="edge67" class="edge"><title>26&#45;&gt;32</title>
<path fill="none" stroke="grey" stroke-width="2" d="M1283.13,-215.876C1298.17,-206.724 1316.87,-195.342 1333.06,-185.485"/>
<polygon fill="grey" stroke="grey" points="1335.04,-188.379 1341.76,-180.19 1331.4,-182.4 1335.04,-188.379"/>
</g>
<!-- 26&#45;&gt;35 -->
<g id="edge72" class="edge"><title>26&#45;&gt;35</title>
<path fill="none" stroke="grey" stroke-width="2" d="M1255.25,-215.697C1255.36,-207.983 1255.49,-198.712 1255.61,-190.112"/>
<polygon fill="grey" stroke="grey" points="1259.11,-190.153 1255.76,-180.104 1252.11,-190.053 1259.11,-190.153"/>
</g>
<!-- 27&#45;&gt;26 -->
<g id="edge61" class="edge"><title>27&#45;&gt;26</title>
<path fill="none" stroke="grey" stroke-width="2" d="M1283.14,-359.871C1277.66,-335.564 1267.58,-290.819 1261.09,-262.013"/>
<polygon fill="grey" stroke="grey" points="1264.49,-261.175 1258.87,-252.189 1257.66,-262.714 1264.49,-261.175"/>
</g>
<!-- 28 -->
<g id="node29" class="node"><title>28</title>
<path fill="none" stroke="#d87556" stroke-width="2" stroke-dasharray="5,2" d="M1896.25,-252C1896.25,-252 1799.75,-252 1799.75,-252 1793.75,-252 1787.75,-246 1787.75,-240 1787.75,-240 1787.75,-228 1787.75,-228 1787.75,-222 1793.75,-216 1799.75,-216 1799.75,-216 1896.25,-216 1896.25,-216 1902.25,-216 1908.25,-222 1908.25,-228 1908.25,-228 1908.25,-240 1908.25,-240 1908.25,-246 1902.25,-252 1896.25,-252"/>
<text text-anchor="middle" x="1848" y="-231.5" font-family="sans" font-size="10.00">samtools_vb_convert</text>
</g>
<!-- 28&#45;&gt;0 -->
<g id="edge21" class="edge"><title>28&#45;&gt;0</title>
<path fill="none" stroke="grey" stroke-width="2" d="M1844.48,-215.863C1839.92,-196.836 1830.53,-165.923 1814,-144 1781.89,-101.417 1767.55,-91.7199 1718,-72 1640.56,-41.1834 1387.89,-25.6411 1292.19,-20.7475"/>
<polygon fill="grey" stroke="grey" points="1292.27,-17.2472 1282.11,-20.2418 1291.92,-24.2384 1292.27,-17.2472"/>
</g>
<!-- 33 -->
<g id="node34" class="node"><title>33</title>
<path fill="none" stroke="#80d856" stroke-width="2" stroke-dasharray="5,2" d="M1793,-180C1793,-180 1711,-180 1711,-180 1705,-180 1699,-174 1699,-168 1699,-168 1699,-156 1699,-156 1699,-150 1705,-144 1711,-144 1711,-144 1793,-144 1793,-144 1799,-144 1805,-150 1805,-156 1805,-156 1805,-168 1805,-168 1805,-174 1799,-180 1793,-180"/>
<text text-anchor="middle" x="1752" y="-159.5" font-family="sans" font-size="10.00">count_mapped_vb</text>
</g>
<!-- 28&#45;&gt;33 -->
<g id="edge68" class="edge"><title>28&#45;&gt;33</title>
<path fill="none" stroke="grey" stroke-width="2" d="M1824.27,-215.697C1812.06,-206.796 1797.01,-195.823 1783.82,-186.199"/>
<polygon fill="grey" stroke="grey" points="1785.6,-183.168 1775.46,-180.104 1781.48,-188.824 1785.6,-183.168"/>
</g>
<!-- 28&#45;&gt;35 -->
<g id="edge73" class="edge"><title>28&#45;&gt;35</title>
<path fill="none" stroke="grey" stroke-width="2" d="M1787.42,-217.651C1784.24,-217.046 1781.09,-216.49 1778,-216 1574.32,-183.685 1515.32,-219.683 1309.14,-179.933"/>
<polygon fill="grey" stroke="grey" points="1309.69,-176.475 1299.2,-177.982 1308.34,-183.344 1309.69,-176.475"/>
</g>
<!-- 29&#45;&gt;28 -->
<g id="edge63" class="edge"><title>29&#45;&gt;28</title>
<path fill="none" stroke="grey" stroke-width="2" d="M1876.61,-287.697C1872.24,-279.644 1866.94,-269.894 1862.1,-260.982"/>
<polygon fill="grey" stroke="grey" points="1865.13,-259.223 1857.29,-252.104 1858.98,-262.563 1865.13,-259.223"/>
</g>
<!-- 30&#45;&gt;0 -->
<g id="edge22" class="edge"><title>30&#45;&gt;0</title>
<path fill="none" stroke="grey" stroke-width="2" d="M399.209,-74.5507C403.851,-73.5788 408.495,-72.707 413,-72 720.998,-23.6613 1098.92,-19.0658 1217.56,-18.8898"/>
<polygon fill="grey" stroke="grey" points="1217.9,-22.3897 1227.9,-18.885 1217.9,-15.3897 1217.9,-22.3897"/>
</g>
<!-- 31&#45;&gt;0 -->
<g id="edge23" class="edge"><title>31&#45;&gt;0</title>
<path fill="none" stroke="grey" stroke-width="2" d="M927.302,-75.0597C931.924,-73.9773 936.538,-72.941 941,-72 1040.51,-51.0136 1159.14,-32.8213 1218.03,-24.2438"/>
<polygon fill="grey" stroke="grey" points="1218.58,-27.7009 1227.98,-22.8043 1217.58,-20.7731 1218.58,-27.7009"/>
</g>
<!-- 32&#45;&gt;0 -->
<g id="edge24" class="edge"><title>32&#45;&gt;0</title>
<path fill="none" stroke="grey" stroke-width="2" d="M1382.4,-143.846C1394.51,-124.804 1409.07,-93.8765 1394,-72 1371.33,-39.0873 1325.27,-26.5988 1292.39,-21.8686"/>
<polygon fill="grey" stroke="grey" points="1292.58,-18.3652 1282.22,-20.5894 1291.71,-25.3104 1292.58,-18.3652"/>
</g>
<!-- 33&#45;&gt;0 -->
<g id="edge25" class="edge"><title>33&#45;&gt;0</title>
<path fill="none" stroke="grey" stroke-width="2" d="M1744.4,-143.918C1734.15,-123.1 1713.8,-88.6462 1685,-72 1618.44,-33.5312 1384.03,-22.7044 1292.25,-19.9029"/>
<polygon fill="grey" stroke="grey" points="1292.13,-16.3982 1282.03,-19.6067 1291.93,-23.3953 1292.13,-16.3982"/>
</g>
<!-- 34 -->
<g id="node35" class="node"><title>34</title>
<path fill="none" stroke="#d8c356" stroke-width="2" stroke-dasharray="5,2" d="M1390.25,-252C1390.25,-252 1345.75,-252 1345.75,-252 1339.75,-252 1333.75,-246 1333.75,-240 1333.75,-240 1333.75,-228 1333.75,-228 1333.75,-222 1339.75,-216 1345.75,-216 1345.75,-216 1390.25,-216 1390.25,-216 1396.25,-216 1402.25,-222 1402.25,-228 1402.25,-228 1402.25,-240 1402.25,-240 1402.25,-246 1396.25,-252 1390.25,-252"/>
<text text-anchor="middle" x="1368" y="-231.5" font-family="sans" font-size="10.00">gff_extract</text>
</g>
<!-- 34&#45;&gt;0 -->
<g id="edge26" class="edge"><title>34&#45;&gt;0</title>
<path fill="none" stroke="grey" stroke-width="2" d="M1398.77,-215.907C1411.54,-207.021 1425,-194.883 1432,-180 1452.77,-135.825 1445.56,-107.448 1412,-72 1380.59,-38.8219 1327.72,-26.4117 1292.11,-21.7707"/>
<polygon fill="grey" stroke="grey" points="1292.45,-18.286 1282.11,-20.6109 1291.64,-25.2394 1292.45,-18.286"/>
</g>
<!-- 34&#45;&gt;35 -->
<g id="edge69" class="edge"><title>34&#45;&gt;35</title>
<path fill="none" stroke="grey" stroke-width="2" d="M1340.6,-215.876C1326.09,-206.808 1308.08,-195.552 1292.41,-185.759"/>
<polygon fill="grey" stroke="grey" points="1293.84,-182.522 1283.5,-180.19 1290.13,-188.458 1293.84,-182.522"/>
</g>
<!-- 35&#45;&gt;0 -->
<g id="edge27" class="edge"><title>35&#45;&gt;0</title>
<path fill="none" stroke="grey" stroke-width="2" d="M1255.88,-143.871C1255.71,-119.67 1255.4,-75.2108 1255.19,-46.3932"/>
<polygon fill="grey" stroke="grey" points="1258.69,-46.1643 1255.12,-36.1893 1251.69,-46.2137 1258.69,-46.1643"/>
</g>
<!-- 36 -->
<g id="node37" class="node"><title>36</title>
<path fill="none" stroke="#d8ac56" stroke-width="2" stroke-dasharray="5,2" d="M1373,-108C1373,-108 1295,-108 1295,-108 1289,-108 1283,-102 1283,-96 1283,-96 1283,-84 1283,-84 1283,-78 1289,-72 1295,-72 1295,-72 1373,-72 1373,-72 1379,-72 1385,-78 1385,-84 1385,-84 1385,-96 1385,-96 1385,-102 1379,-108 1373,-108"/>
<text text-anchor="middle" x="1334" y="-87.5" font-family="sans" font-size="10.00">format_fC_output</text>
</g>
<!-- 35&#45;&gt;36 -->
<g id="edge74" class="edge"><title>35&#45;&gt;36</title>
<path fill="none" stroke="grey" stroke-width="2" d="M1275.28,-143.697C1284.92,-135.05 1296.73,-124.449 1307.23,-115.027"/>
<polygon fill="grey" stroke="grey" points="1309.84,-117.388 1314.94,-108.104 1305.16,-112.179 1309.84,-117.388"/>
</g>
<!-- 36&#45;&gt;0 -->
<g id="edge28" class="edge"><title>36&#45;&gt;0</title>
<path fill="none" stroke="grey" stroke-width="2" d="M1314.47,-71.6966C1304.62,-62.9655 1292.51,-52.2405 1281.8,-42.7503"/>
<polygon fill="grey" stroke="grey" points="1284.11,-40.1166 1274.3,-36.1043 1279.47,-45.3558 1284.11,-40.1166"/>
</g>
<!-- 37 -->
<g id="node38" class="node"><title>37</title>
<path fill="none" stroke="#61d856" stroke-width="2" stroke-dasharray="5,2" d="M2134.25,-180C2134.25,-180 1911.75,-180 1911.75,-180 1905.75,-180 1899.75,-174 1899.75,-168 1899.75,-168 1899.75,-156 1899.75,-156 1899.75,-150 1905.75,-144 1911.75,-144 1911.75,-144 2134.25,-144 2134.25,-144 2140.25,-144 2146.25,-150 2146.25,-156 2146.25,-156 2146.25,-168 2146.25,-168 2146.25,-174 2140.25,-180 2134.25,-180"/>
<text text-anchor="middle" x="2023" y="-165" font-family="sans" font-size="10.00">get_genome_unassigned</text>
<text text-anchor="middle" x="2023" y="-154" font-family="sans" font-size="10.00">sample: 230120_09_embryo_rhodnius_rep1_R1</text>
</g>
<!-- 37&#45;&gt;0 -->
<g id="edge29" class="edge"><title>37&#45;&gt;0</title>
<path fill="none" stroke="grey" stroke-width="2" d="M2003.17,-143.649C1977.76,-122.554 1931.42,-87.8136 1885,-72 1774.17,-34.2414 1410.54,-22.6079 1292.42,-19.7792"/>
<polygon fill="grey" stroke="grey" points="1292.17,-16.2725 1282.09,-19.5395 1292.01,-23.2707 1292.17,-16.2725"/>
</g>
<!-- 41 -->
<g id="node42" class="node"><title>41</title>
<path fill="none" stroke="#56d89a" stroke-width="2" stroke-dasharray="5,2" d="M2340,-108C2340,-108 2236,-108 2236,-108 2230,-108 2224,-102 2224,-96 2224,-96 2224,-84 2224,-84 2224,-78 2230,-72 2236,-72 2236,-72 2340,-72 2340,-72 2346,-72 2352,-78 2352,-84 2352,-84 2352,-96 2352,-96 2352,-102 2346,-108 2340,-108"/>
<text text-anchor="middle" x="2288" y="-87.5" font-family="sans" font-size="10.00">featureCounts_repeats</text>
</g>
<!-- 37&#45;&gt;41 -->
<g id="edge75" class="edge"><title>37&#45;&gt;41</title>
<path fill="none" stroke="grey" stroke-width="2" d="M2087.49,-143.966C2125.62,-133.893 2174.07,-121.096 2213.78,-110.604"/>
<polygon fill="grey" stroke="grey" points="2214.91,-113.927 2223.68,-107.989 2213.12,-107.159 2214.91,-113.927"/>
</g>
<!-- 38 -->
<g id="node39" class="node"><title>38</title>
<path fill="none" stroke="#61d856" stroke-width="2" stroke-dasharray="5,2" d="M2399.25,-180C2399.25,-180 2176.75,-180 2176.75,-180 2170.75,-180 2164.75,-174 2164.75,-168 2164.75,-168 2164.75,-156 2164.75,-156 2164.75,-150 2170.75,-144 2176.75,-144 2176.75,-144 2399.25,-144 2399.25,-144 2405.25,-144 2411.25,-150 2411.25,-156 2411.25,-156 2411.25,-168 2411.25,-168 2411.25,-174 2405.25,-180 2399.25,-180"/>
<text text-anchor="middle" x="2288" y="-165" font-family="sans" font-size="10.00">get_genome_unassigned</text>
<text text-anchor="middle" x="2288" y="-154" font-family="sans" font-size="10.00">sample: 230120_04_embryo_rhodnius_rep2_R1</text>
</g>
<!-- 38&#45;&gt;0 -->
<g id="edge30" class="edge"><title>38&#45;&gt;0</title>
<path fill="none" stroke="grey" stroke-width="2" d="M2232.35,-143.96C2162.96,-123.434 2040.39,-89.5318 1933,-72 1690.75,-32.4521 1394.83,-22.1842 1292.17,-19.7217"/>
<polygon fill="grey" stroke="grey" points="1292.08,-16.2189 1282,-19.4886 1291.92,-23.2171 1292.08,-16.2189"/>
</g>
<!-- 38&#45;&gt;41 -->
<g id="edge76" class="edge"><title>38&#45;&gt;41</title>
<path fill="none" stroke="grey" stroke-width="2" d="M2288,-143.697C2288,-135.983 2288,-126.712 2288,-118.112"/>
<polygon fill="grey" stroke="grey" points="2291.5,-118.104 2288,-108.104 2284.5,-118.104 2291.5,-118.104"/>
</g>
<!-- 39 -->
<g id="node40" class="node"><title>39</title>
<path fill="none" stroke="#61d856" stroke-width="2" stroke-dasharray="5,2" d="M2660.25,-180C2660.25,-180 2441.75,-180 2441.75,-180 2435.75,-180 2429.75,-174 2429.75,-168 2429.75,-168 2429.75,-156 2429.75,-156 2429.75,-150 2435.75,-144 2441.75,-144 2441.75,-144 2660.25,-144 2660.25,-144 2666.25,-144 2672.25,-150 2672.25,-156 2672.25,-156 2672.25,-168 2672.25,-168 2672.25,-174 2666.25,-180 2660.25,-180"/>
<text text-anchor="middle" x="2551" y="-165" font-family="sans" font-size="10.00">get_genome_unassigned</text>
<text text-anchor="middle" x="2551" y="-154" font-family="sans" font-size="10.00">sample: 230120_01_nymph_rhodnius_rep1_R1</text>
</g>
<!-- 39&#45;&gt;0 -->
<g id="edge31" class="edge"><title>39&#45;&gt;0</title>
<path fill="none" stroke="grey" stroke-width="2" d="M2523.63,-143.966C2487.81,-122.68 2422.34,-87.205 2361,-72 2151.84,-20.1557 1460.79,-18.469 1292.29,-18.8502"/>
<polygon fill="grey" stroke="grey" points="1292.17,-15.3504 1282.18,-18.8771 1292.19,-22.3504 1292.17,-15.3504"/>
</g>
<!-- 39&#45;&gt;41 -->
<g id="edge77" class="edge"><title>39&#45;&gt;41</title>
<path fill="none" stroke="grey" stroke-width="2" d="M2487,-143.966C2449.29,-133.93 2401.43,-121.19 2362.09,-110.721"/>
<polygon fill="grey" stroke="grey" points="2362.85,-107.301 2352.29,-108.111 2361.05,-114.065 2362.85,-107.301"/>
</g>
<!-- 40 -->
<g id="node41" class="node"><title>40</title>
<path fill="none" stroke="#61d856" stroke-width="2" stroke-dasharray="5,2" d="M2921.25,-180C2921.25,-180 2702.75,-180 2702.75,-180 2696.75,-180 2690.75,-174 2690.75,-168 2690.75,-168 2690.75,-156 2690.75,-156 2690.75,-150 2696.75,-144 2702.75,-144 2702.75,-144 2921.25,-144 2921.25,-144 2927.25,-144 2933.25,-150 2933.25,-156 2933.25,-156 2933.25,-168 2933.25,-168 2933.25,-174 2927.25,-180 2921.25,-180"/>
<text text-anchor="middle" x="2812" y="-165" font-family="sans" font-size="10.00">get_genome_unassigned</text>
<text text-anchor="middle" x="2812" y="-154" font-family="sans" font-size="10.00">sample: 230120_10_nymph_rhodnius_rep2_R1</text>
</g>
<!-- 40&#45;&gt;0 -->
<g id="edge32" class="edge"><title>40&#45;&gt;0</title>
<path fill="none" stroke="grey" stroke-width="2" d="M2752.32,-143.915C2676.16,-122.924 2540.01,-88.1174 2421,-72 2195.18,-41.4158 1466.13,-23.6621 1292.41,-19.8017"/>
<polygon fill="grey" stroke="grey" points="1292.31,-16.2988 1282.24,-19.5775 1292.16,-23.2971 1292.31,-16.2988"/>
</g>
<!-- 40&#45;&gt;41 -->
<g id="edge78" class="edge"><title>40&#45;&gt;41</title>
<path fill="none" stroke="grey" stroke-width="2" d="M2690.47,-144.765C2589.07,-131.22 2447.83,-112.352 2362.45,-100.945"/>
<polygon fill="grey" stroke="grey" points="2362.69,-97.4472 2352.32,-99.5921 2361.77,-104.386 2362.69,-97.4472"/>
</g>
<!-- 41&#45;&gt;0 -->
<g id="edge33" class="edge"><title>41&#45;&gt;0</title>
<path fill="none" stroke="grey" stroke-width="2" d="M2223.6,-82.1534C2190.81,-78.8089 2150.31,-74.8928 2114,-72 1796.29,-46.6862 1411.63,-26.7596 1292.19,-20.818"/>
<polygon fill="grey" stroke="grey" points="1292.27,-17.3178 1282.11,-20.3185 1291.92,-24.3092 1292.27,-17.3178"/>
</g>
</g>
</svg>
