<?xml version="1.0" encoding="UTF-8" standalone="no"?>
<!DOCTYPE svg PUBLIC "-//W3C//DTD SVG 1.1//EN"
 "http://www.w3.org/Graphics/SVG/1.1/DTD/svg11.dtd">
<!-- Generated by graphviz version 2.30.1 (20180420.1509)
 -->
<!-- Title: snakemake_dag Pages: 1 -->
<svg width="900pt" height="548pt"
 viewBox="0.00 0.00 900.00 548.00" xmlns="http://www.w3.org/2000/svg" xmlns:xlink="http://www.w3.org/1999/xlink">
<g id="graph0" class="graph" transform="scale(1 1) rotate(0) translate(4 544)">
<title>snakemake_dag</title>
<polygon fill="white" stroke="white" points="-4,5 -4,-544 897,-544 897,5 -4,5"/>
<!-- 0 -->
<g id="node1" class="node"><title>0</title>
<path fill="none" stroke="#56d882" stroke-width="2" d="M423,-36C423,-36 393,-36 393,-36 387,-36 381,-30 381,-24 381,-24 381,-12 381,-12 381,-6 387,-0 393,-0 393,-0 423,-0 423,-0 429,-0 435,-6 435,-12 435,-12 435,-24 435,-24 435,-30 429,-36 423,-36"/>
<text text-anchor="middle" x="408" y="-15.5" font-family="sans" font-size="10.00">all</text>
</g>
<!-- 1 -->
<g id="node2" class="node"><title>1</title>
<path fill="none" stroke="#d8ac56" stroke-width="2" d="M72,-540C72,-540 26,-540 26,-540 20,-540 14,-534 14,-528 14,-528 14,-516 14,-516 14,-510 20,-504 26,-504 26,-504 72,-504 72,-504 78,-504 84,-510 84,-516 84,-516 84,-528 84,-528 84,-534 78,-540 72,-540"/>
<text text-anchor="middle" x="49" y="-519.5" font-family="sans" font-size="10.00">link_inputs</text>
</g>
<!-- 1&#45;&gt;0 -->
<g id="edge12" class="edge"><title>1&#45;&gt;0</title>
<path fill="none" stroke="grey" stroke-width="2" d="M38.8472,-503.732C24.4948,-477.643 0,-426.203 0,-379 0,-379 0,-379 0,-161 0,-117.449 6.10076,-98.0525 41,-72 92.645,-33.4466 288.005,-22.7792 370.682,-19.961"/>
<polygon fill="grey" stroke="grey" points="371,-23.4527 380.882,-19.634 370.775,-16.4563 371,-23.4527"/>
</g>
<!-- 2 -->
<g id="node3" class="node"><title>2</title>
<path fill="none" stroke="#56d8d0" stroke-width="2" d="M120.25,-468C120.25,-468 75.75,-468 75.75,-468 69.75,-468 63.75,-462 63.75,-456 63.75,-456 63.75,-444 63.75,-444 63.75,-438 69.75,-432 75.75,-432 75.75,-432 120.25,-432 120.25,-432 126.25,-432 132.25,-438 132.25,-444 132.25,-444 132.25,-456 132.25,-456 132.25,-462 126.25,-468 120.25,-468"/>
<text text-anchor="middle" x="98" y="-447.5" font-family="sans" font-size="10.00">trim_small</text>
</g>
<!-- 1&#45;&gt;2 -->
<g id="edge16" class="edge"><title>1&#45;&gt;2</title>
<path fill="none" stroke="grey" stroke-width="2" d="M61.1124,-503.697C66.8681,-495.474 73.8617,-485.483 80.2055,-476.421"/>
<polygon fill="grey" stroke="grey" points="83.1596,-478.304 86.027,-468.104 77.425,-474.29 83.1596,-478.304"/>
</g>
<!-- 2&#45;&gt;0 -->
<g id="edge5" class="edge"><title>2&#45;&gt;0</title>
<path fill="none" stroke="grey" stroke-width="2" d="M85.2755,-431.623C67.6631,-405.806 38,-355.174 38,-307 38,-307 38,-307 38,-161 38,-118.496 39.8568,-98.611 73,-72 118.332,-35.6024 293.044,-23.8215 370.573,-20.3369"/>
<polygon fill="grey" stroke="grey" points="371.003,-23.8219 380.845,-19.8986 370.704,-16.8282 371.003,-23.8219"/>
</g>
<!-- 4 -->
<g id="node5" class="node"><title>4</title>
<path fill="none" stroke="#b6d856" stroke-width="2" d="M178,-396C178,-396 88,-396 88,-396 82,-396 76,-390 76,-384 76,-384 76,-372 76,-372 76,-366 82,-360 88,-360 88,-360 178,-360 178,-360 184,-360 190,-366 190,-372 190,-372 190,-384 190,-384 190,-390 184,-396 178,-396"/>
<text text-anchor="middle" x="133" y="-375.5" font-family="sans" font-size="10.00">bowtie_hic_genome</text>
</g>
<!-- 2&#45;&gt;4 -->
<g id="edge18" class="edge"><title>2&#45;&gt;4</title>
<path fill="none" stroke="grey" stroke-width="2" d="M106.652,-431.697C110.636,-423.728 115.45,-414.1 119.868,-405.264"/>
<polygon fill="grey" stroke="grey" points="123.106,-406.614 124.448,-396.104 116.845,-403.483 123.106,-406.614"/>
</g>
<!-- 11 -->
<g id="node12" class="node"><title>11</title>
<path fill="none" stroke="#56d863" stroke-width="2" d="M358,-396C358,-396 270,-396 270,-396 264,-396 258,-390 258,-384 258,-384 258,-372 258,-372 258,-366 264,-360 270,-360 270,-360 358,-360 358,-360 364,-360 370,-366 370,-372 370,-372 370,-384 370,-384 370,-390 364,-396 358,-396"/>
<text text-anchor="middle" x="314" y="-375.5" font-family="sans" font-size="10.00">bowtie_vb_genome</text>
</g>
<!-- 2&#45;&gt;11 -->
<g id="edge25" class="edge"><title>2&#45;&gt;11</title>
<path fill="none" stroke="grey" stroke-width="2" d="M132.704,-437.753C164.696,-427.386 212.934,-411.753 251.612,-399.218"/>
<polygon fill="grey" stroke="grey" points="252.789,-402.516 261.223,-396.104 250.631,-395.857 252.789,-402.516"/>
</g>
<!-- 3 -->
<g id="node4" class="node"><title>3</title>
<path fill="none" stroke="#80d856" stroke-width="2" d="M187.25,-324C187.25,-324 88.75,-324 88.75,-324 82.75,-324 76.75,-318 76.75,-312 76.75,-312 76.75,-300 76.75,-300 76.75,-294 82.75,-288 88.75,-288 88.75,-288 187.25,-288 187.25,-288 193.25,-288 199.25,-294 199.25,-300 199.25,-300 199.25,-312 199.25,-312 199.25,-318 193.25,-324 187.25,-324"/>
<text text-anchor="middle" x="138" y="-303.5" font-family="sans" font-size="10.00">samtools_hic_convert</text>
</g>
<!-- 3&#45;&gt;0 -->
<g id="edge10" class="edge"><title>3&#45;&gt;0</title>
<path fill="none" stroke="grey" stroke-width="2" d="M126.695,-287.999C100.304,-245.997 40.8428,-136.098 95,-72 129.877,-30.7208 294.992,-21.5833 370.345,-19.5672"/>
<polygon fill="grey" stroke="grey" points="370.871,-23.0558 380.785,-19.3185 370.704,-16.0577 370.871,-23.0558"/>
</g>
<!-- 5 -->
<g id="node6" class="node"><title>5</title>
<path fill="none" stroke="#568ad8" stroke-width="2" d="M200,-108C200,-108 116,-108 116,-108 110,-108 104,-102 104,-96 104,-96 104,-84 104,-84 104,-78 110,-72 116,-72 116,-72 200,-72 200,-72 206,-72 212,-78 212,-84 212,-84 212,-96 212,-96 212,-102 206,-108 200,-108"/>
<text text-anchor="middle" x="158" y="-87.5" font-family="sans" font-size="10.00">count_mapped_hic</text>
</g>
<!-- 3&#45;&gt;5 -->
<g id="edge19" class="edge"><title>3&#45;&gt;5</title>
<path fill="none" stroke="grey" stroke-width="2" d="M139.603,-287.849C143.062,-250.832 151.254,-163.181 155.441,-118.386"/>
<polygon fill="grey" stroke="grey" points="158.944,-118.515 156.389,-108.232 151.974,-117.863 158.944,-118.515"/>
</g>
<!-- 6 -->
<g id="node7" class="node"><title>6</title>
<path fill="none" stroke="#d88d56" stroke-width="2" d="M335,-252C335,-252 247,-252 247,-252 241,-252 235,-246 235,-240 235,-240 235,-228 235,-228 235,-222 241,-216 247,-216 247,-216 335,-216 335,-216 341,-216 347,-222 347,-228 347,-228 347,-240 347,-240 347,-246 341,-252 335,-252"/>
<text text-anchor="middle" x="291" y="-231.5" font-family="sans" font-size="10.00">multiBamSummary</text>
</g>
<!-- 3&#45;&gt;6 -->
<g id="edge20" class="edge"><title>3&#45;&gt;6</title>
<path fill="none" stroke="grey" stroke-width="2" d="M175.428,-287.876C196.251,-278.349 222.354,-266.407 244.481,-256.283"/>
<polygon fill="grey" stroke="grey" points="246.056,-259.411 253.694,-252.068 243.144,-253.046 246.056,-259.411"/>
</g>
<!-- 4&#45;&gt;3 -->
<g id="edge17" class="edge"><title>4&#45;&gt;3</title>
<path fill="none" stroke="grey" stroke-width="2" d="M134.236,-359.697C134.787,-351.983 135.449,-342.712 136.063,-334.112"/>
<polygon fill="grey" stroke="grey" points="139.557,-334.328 136.778,-324.104 132.575,-333.83 139.557,-334.328"/>
</g>
<!-- 5&#45;&gt;0 -->
<g id="edge7" class="edge"><title>5&#45;&gt;0</title>
<path fill="none" stroke="grey" stroke-width="2" d="M212.246,-73.811C260.272,-60.3638 329.075,-41.0989 371.024,-29.3533"/>
<polygon fill="grey" stroke="grey" points="372.14,-32.6756 380.826,-26.6088 370.252,-25.9348 372.14,-32.6756"/>
</g>
<!-- 6&#45;&gt;0 -->
<g id="edge9" class="edge"><title>6&#45;&gt;0</title>
<path fill="none" stroke="grey" stroke-width="2" d="M277.436,-215.972C270.442,-206.09 262.633,-193.047 259,-180 245.697,-132.231 252.68,-107.791 287,-72 309.66,-48.3684 344.677,-34.6114 371.221,-27.0647"/>
<polygon fill="grey" stroke="grey" points="372.178,-30.4317 380.936,-24.4688 370.371,-23.669 372.178,-30.4317"/>
</g>
<!-- 7 -->
<g id="node8" class="node"><title>7</title>
<path fill="none" stroke="#97d856" stroke-width="2" d="M345.25,-180C345.25,-180 280.75,-180 280.75,-180 274.75,-180 268.75,-174 268.75,-168 268.75,-168 268.75,-156 268.75,-156 268.75,-150 274.75,-144 280.75,-144 280.75,-144 345.25,-144 345.25,-144 351.25,-144 357.25,-150 357.25,-156 357.25,-156 357.25,-168 357.25,-168 357.25,-174 351.25,-180 345.25,-180"/>
<text text-anchor="middle" x="313" y="-159.5" font-family="sans" font-size="10.00">plotCorrelation</text>
</g>
<!-- 6&#45;&gt;7 -->
<g id="edge21" class="edge"><title>6&#45;&gt;7</title>
<path fill="none" stroke="grey" stroke-width="2" d="M296.438,-215.697C298.889,-207.898 301.84,-198.509 304.568,-189.829"/>
<polygon fill="grey" stroke="grey" points="307.965,-190.694 307.624,-180.104 301.287,-188.595 307.965,-190.694"/>
</g>
<!-- 8 -->
<g id="node9" class="node"><title>8</title>
<path fill="none" stroke="#d8c356" stroke-width="2" d="M423.25,-108C423.25,-108 392.75,-108 392.75,-108 386.75,-108 380.75,-102 380.75,-96 380.75,-96 380.75,-84 380.75,-84 380.75,-78 386.75,-72 392.75,-72 392.75,-72 423.25,-72 423.25,-72 429.25,-72 435.25,-78 435.25,-84 435.25,-84 435.25,-96 435.25,-96 435.25,-102 429.25,-108 423.25,-108"/>
<text text-anchor="middle" x="408" y="-87.5" font-family="sans" font-size="10.00">plotPCA</text>
</g>
<!-- 6&#45;&gt;8 -->
<g id="edge22" class="edge"><title>6&#45;&gt;8</title>
<path fill="none" stroke="grey" stroke-width="2" d="M322.341,-215.963C337.025,-206.797 353.905,-194.411 366,-180 381.456,-161.586 392.61,-136.526 399.522,-117.689"/>
<polygon fill="grey" stroke="grey" points="402.839,-118.806 402.838,-108.211 396.232,-116.494 402.839,-118.806"/>
</g>
<!-- 7&#45;&gt;0 -->
<g id="edge6" class="edge"><title>7&#45;&gt;0</title>
<path fill="none" stroke="grey" stroke-width="2" d="M303.303,-143.907C293.953,-124.921 283.098,-94.0429 297,-72 313.091,-46.4864 345.217,-32.9923 370.786,-26.0213"/>
<polygon fill="grey" stroke="grey" points="371.715,-29.3968 380.568,-23.5772 370.018,-22.6056 371.715,-29.3968"/>
</g>
<!-- 9 -->
<g id="node10" class="node"><title>9</title>
<path fill="none" stroke="#ced856" stroke-width="2" d="M350,-108C350,-108 318,-108 318,-108 312,-108 306,-102 306,-96 306,-96 306,-84 306,-84 306,-78 312,-72 318,-72 318,-72 350,-72 350,-72 356,-72 362,-78 362,-84 362,-84 362,-96 362,-96 362,-102 356,-108 350,-108"/>
<text text-anchor="middle" x="334" y="-87.5" font-family="sans" font-size="10.00">multiQC</text>
</g>
<!-- 7&#45;&gt;9 -->
<g id="edge23" class="edge"><title>7&#45;&gt;9</title>
<path fill="none" stroke="grey" stroke-width="2" d="M318.191,-143.697C320.531,-135.898 323.347,-126.509 325.951,-117.829"/>
<polygon fill="grey" stroke="grey" points="329.348,-118.688 328.869,-108.104 322.643,-116.677 329.348,-118.688"/>
</g>
<!-- 8&#45;&gt;0 -->
<g id="edge13" class="edge"><title>8&#45;&gt;0</title>
<path fill="none" stroke="grey" stroke-width="2" d="M408,-71.6966C408,-63.9827 408,-54.7125 408,-46.1124"/>
<polygon fill="grey" stroke="grey" points="411.5,-46.1043 408,-36.1043 404.5,-46.1044 411.5,-46.1043"/>
</g>
<!-- 9&#45;&gt;0 -->
<g id="edge8" class="edge"><title>9&#45;&gt;0</title>
<path fill="none" stroke="grey" stroke-width="2" d="M352.292,-71.6966C361.433,-63.0503 372.64,-52.4486 382.6,-43.027"/>
<polygon fill="grey" stroke="grey" points="385.059,-45.519 389.918,-36.1043 380.248,-40.4337 385.059,-45.519"/>
</g>
<!-- 10 -->
<g id="node11" class="node"><title>10</title>
<path fill="none" stroke="#d87556" stroke-width="2" d="M502.25,-252C502.25,-252 405.75,-252 405.75,-252 399.75,-252 393.75,-246 393.75,-240 393.75,-240 393.75,-228 393.75,-228 393.75,-222 399.75,-216 405.75,-216 405.75,-216 502.25,-216 502.25,-216 508.25,-216 514.25,-222 514.25,-228 514.25,-228 514.25,-240 514.25,-240 514.25,-246 508.25,-252 502.25,-252"/>
<text text-anchor="middle" x="454" y="-231.5" font-family="sans" font-size="10.00">samtools_vb_convert</text>
</g>
<!-- 10&#45;&gt;0 -->
<g id="edge3" class="edge"><title>10&#45;&gt;0</title>
<path fill="none" stroke="grey" stroke-width="2" d="M453.001,-215.979C450.585,-174.923 444.577,-73.6894 444,-72 440.689,-62.3133 435.106,-52.7416 429.313,-44.4542"/>
<polygon fill="grey" stroke="grey" points="432.055,-42.2766 423.285,-36.3317 426.434,-46.448 432.055,-42.2766"/>
</g>
<!-- 12 -->
<g id="node13" class="node"><title>12</title>
<path fill="none" stroke="#56d89a" stroke-width="2" d="M554,-180C554,-180 472,-180 472,-180 466,-180 460,-174 460,-168 460,-168 460,-156 460,-156 460,-150 466,-144 472,-144 472,-144 554,-144 554,-144 560,-144 566,-150 566,-156 566,-156 566,-168 566,-168 566,-174 560,-180 554,-180"/>
<text text-anchor="middle" x="513" y="-159.5" font-family="sans" font-size="10.00">count_mapped_vb</text>
</g>
<!-- 10&#45;&gt;12 -->
<g id="edge26" class="edge"><title>10&#45;&gt;12</title>
<path fill="none" stroke="grey" stroke-width="2" d="M468.584,-215.697C475.658,-207.305 484.283,-197.07 492.045,-187.861"/>
<polygon fill="grey" stroke="grey" points="494.815,-190.006 498.583,-180.104 489.463,-185.495 494.815,-190.006"/>
</g>
<!-- 14 -->
<g id="node15" class="node"><title>14</title>
<path fill="none" stroke="#56c1d8" stroke-width="2" d="M658,-180C658,-180 596,-180 596,-180 590,-180 584,-174 584,-168 584,-168 584,-156 584,-156 584,-150 590,-144 596,-144 596,-144 658,-144 658,-144 664,-144 670,-150 670,-156 670,-156 670,-168 670,-168 670,-174 664,-180 658,-180"/>
<text text-anchor="middle" x="627" y="-159.5" font-family="sans" font-size="10.00">featureCounts</text>
</g>
<!-- 10&#45;&gt;14 -->
<g id="edge28" class="edge"><title>10&#45;&gt;14</title>
<path fill="none" stroke="grey" stroke-width="2" d="M496.321,-215.876C520.181,-206.222 550.172,-194.087 575.403,-183.878"/>
<polygon fill="grey" stroke="grey" points="576.86,-187.064 584.817,-180.068 574.234,-180.575 576.86,-187.064"/>
</g>
<!-- 11&#45;&gt;10 -->
<g id="edge24" class="edge"><title>11&#45;&gt;10</title>
<path fill="none" stroke="grey" stroke-width="2" d="M330.887,-359.871C355.589,-334.817 401.695,-288.052 429.938,-259.406"/>
<polygon fill="grey" stroke="grey" points="432.524,-261.768 437.053,-252.189 427.54,-256.853 432.524,-261.768"/>
</g>
<!-- 12&#45;&gt;0 -->
<g id="edge15" class="edge"><title>12&#45;&gt;0</title>
<path fill="none" stroke="grey" stroke-width="2" d="M509.238,-143.878C504.425,-124.864 494.651,-93.9627 478,-72 468.647,-59.6634 455.697,-48.7736 443.477,-40.1242"/>
<polygon fill="grey" stroke="grey" points="445.428,-37.2183 435.187,-34.5038 441.5,-43.0123 445.428,-37.2183"/>
</g>
<!-- 13 -->
<g id="node14" class="node"><title>13</title>
<path fill="none" stroke="#56a9d8" stroke-width="2" d="M684.25,-252C684.25,-252 639.75,-252 639.75,-252 633.75,-252 627.75,-246 627.75,-240 627.75,-240 627.75,-228 627.75,-228 627.75,-222 633.75,-216 639.75,-216 639.75,-216 684.25,-216 684.25,-216 690.25,-216 696.25,-222 696.25,-228 696.25,-228 696.25,-240 696.25,-240 696.25,-246 690.25,-252 684.25,-252"/>
<text text-anchor="middle" x="662" y="-231.5" font-family="sans" font-size="10.00">gff_extract</text>
</g>
<!-- 13&#45;&gt;0 -->
<g id="edge2" class="edge"><title>13&#45;&gt;0</title>
<path fill="none" stroke="grey" stroke-width="2" d="M671.088,-215.655C686.589,-183.393 713.302,-113.66 679,-72 649.858,-36.6068 512.986,-24.5154 445.629,-20.6635"/>
<polygon fill="grey" stroke="grey" points="445.617,-17.1578 435.443,-20.1137 445.24,-24.1477 445.617,-17.1578"/>
</g>
<!-- 13&#45;&gt;14 -->
<g id="edge27" class="edge"><title>13&#45;&gt;14</title>
<path fill="none" stroke="grey" stroke-width="2" d="M653.348,-215.697C649.364,-207.728 644.55,-198.1 640.132,-189.264"/>
<polygon fill="grey" stroke="grey" points="643.155,-187.483 635.552,-180.104 636.894,-190.614 643.155,-187.483"/>
</g>
<!-- 14&#45;&gt;0 -->
<g id="edge14" class="edge"><title>14&#45;&gt;0</title>
<path fill="none" stroke="grey" stroke-width="2" d="M604.459,-143.857C579.804,-125.367 538.875,-95.4316 502,-72 483.283,-60.1068 461.779,-47.881 444.066,-38.1728"/>
<polygon fill="grey" stroke="grey" points="445.64,-35.045 435.183,-33.3406 442.295,-41.194 445.64,-35.045"/>
</g>
<!-- 15 -->
<g id="node16" class="node"><title>15</title>
<path fill="none" stroke="#61d856" stroke-width="2" d="M658,-108C658,-108 580,-108 580,-108 574,-108 568,-102 568,-96 568,-96 568,-84 568,-84 568,-78 574,-72 580,-72 580,-72 658,-72 658,-72 664,-72 670,-78 670,-84 670,-84 670,-96 670,-96 670,-102 664,-108 658,-108"/>
<text text-anchor="middle" x="619" y="-87.5" font-family="sans" font-size="10.00">format_fC_output</text>
</g>
<!-- 14&#45;&gt;15 -->
<g id="edge29" class="edge"><title>14&#45;&gt;15</title>
<path fill="none" stroke="grey" stroke-width="2" d="M625.022,-143.697C624.141,-135.983 623.081,-126.712 622.099,-118.112"/>
<polygon fill="grey" stroke="grey" points="625.568,-117.642 620.955,-108.104 618.613,-118.437 625.568,-117.642"/>
</g>
<!-- 15&#45;&gt;0 -->
<g id="edge11" class="edge"><title>15&#45;&gt;0</title>
<path fill="none" stroke="grey" stroke-width="2" d="M567.923,-72.055C529.847,-59.4233 478.748,-42.471 444.663,-31.1631"/>
<polygon fill="grey" stroke="grey" points="445.689,-27.8159 435.095,-27.989 443.485,-34.4598 445.689,-27.8159"/>
</g>
<!-- 16 -->
<g id="node17" class="node"><title>16</title>
<path fill="none" stroke="#d85656" stroke-width="2" d="M868,-180C868,-180 754,-180 754,-180 748,-180 742,-174 742,-168 742,-168 742,-156 742,-156 742,-150 748,-144 754,-144 754,-144 868,-144 868,-144 874,-144 880,-150 880,-156 880,-156 880,-168 880,-168 880,-174 874,-180 868,-180"/>
<text text-anchor="middle" x="811" y="-159.5" font-family="sans" font-size="10.00">get_genome_unassigned</text>
</g>
<!-- 16&#45;&gt;0 -->
<g id="edge1" class="edge"><title>16&#45;&gt;0</title>
<path fill="none" stroke="grey" stroke-width="2" d="M792.909,-143.736C767.001,-119.169 721.406,-76.5718 712,-72 623.137,-28.8072 504.534,-20.341 445.162,-18.9833"/>
<polygon fill="grey" stroke="grey" points="445.187,-15.4833 435.128,-18.8096 445.066,-22.4822 445.187,-15.4833"/>
</g>
<!-- 17 -->
<g id="node18" class="node"><title>17</title>
<path fill="none" stroke="#56d8b9" stroke-width="2" d="M880,-108C880,-108 776,-108 776,-108 770,-108 764,-102 764,-96 764,-96 764,-84 764,-84 764,-78 770,-72 776,-72 776,-72 880,-72 880,-72 886,-72 892,-78 892,-84 892,-84 892,-96 892,-96 892,-102 886,-108 880,-108"/>
<text text-anchor="middle" x="828" y="-87.5" font-family="sans" font-size="10.00">featureCounts_repeats</text>
</g>
<!-- 16&#45;&gt;17 -->
<g id="edge30" class="edge"><title>16&#45;&gt;17</title>
<path fill="none" stroke="grey" stroke-width="2" d="M815.202,-143.697C817.096,-135.898 819.377,-126.509 821.484,-117.829"/>
<polygon fill="grey" stroke="grey" points="824.887,-118.648 823.846,-108.104 818.085,-116.996 824.887,-118.648"/>
</g>
<!-- 17&#45;&gt;0 -->
<g id="edge4" class="edge"><title>17&#45;&gt;0</title>
<path fill="none" stroke="grey" stroke-width="2" d="M763.79,-74.6813C759.13,-73.7417 754.496,-72.8376 750,-72 639.721,-51.4571 508.394,-32.6888 445.374,-24.0327"/>
<polygon fill="grey" stroke="grey" points="445.521,-20.5204 435.139,-22.6336 444.573,-27.4559 445.521,-20.5204"/>
</g>
</g>
</svg>
