<?xml version="1.0" encoding="UTF-8" standalone="no"?>
<!DOCTYPE svg PUBLIC "-//W3C//DTD SVG 1.1//EN"
 "http://www.w3.org/Graphics/SVG/1.1/DTD/svg11.dtd">
<!-- Generated by graphviz version 2.30.1 (20180420.1509)
 -->
<!-- Title: snakemake_dag Pages: 1 -->
<svg width="1135pt" height="764pt"
 viewBox="0.00 0.00 1135.00 764.00" xmlns="http://www.w3.org/2000/svg" xmlns:xlink="http://www.w3.org/1999/xlink">
<g id="graph0" class="graph" transform="scale(1 1) rotate(0) translate(4 760)">
<title>snakemake_dag</title>
<polygon fill="white" stroke="white" points="-4,5 -4,-760 1132,-760 1132,5 -4,5"/>
<!-- 0 -->
<g id="node1" class="node"><title>0</title>
<path fill="none" stroke="#c6d856" stroke-width="2" d="M462,-36C462,-36 432,-36 432,-36 426,-36 420,-30 420,-24 420,-24 420,-12 420,-12 420,-6 426,-0 432,-0 432,-0 462,-0 462,-0 468,-0 474,-6 474,-12 474,-12 474,-24 474,-24 474,-30 468,-36 462,-36"/>
<text text-anchor="middle" x="447" y="-15.5" font-family="sans" font-size="10.00">all</text>
</g>
<!-- 1 -->
<g id="node2" class="node"><title>1</title>
<path fill="none" stroke="#56d8d8" stroke-width="2" d="M70,-756C70,-756 24,-756 24,-756 18,-756 12,-750 12,-744 12,-744 12,-732 12,-732 12,-726 18,-720 24,-720 24,-720 70,-720 70,-720 76,-720 82,-726 82,-732 82,-732 82,-744 82,-744 82,-750 76,-756 70,-756"/>
<text text-anchor="middle" x="47" y="-735.5" font-family="sans" font-size="10.00">link_inputs</text>
</g>
<!-- 1&#45;&gt;0 -->
<g id="edge18" class="edge"><title>1&#45;&gt;0</title>
<path fill="none" stroke="grey" stroke-width="2" d="M37.2616,-719.68C23.495,-693.525 0,-642.002 0,-595 0,-595 0,-595 0,-161 0,-114.266 16.7036,-97.2961 56,-72 114.128,-34.5817 323.638,-23.2211 409.698,-20.0887"/>
<polygon fill="grey" stroke="grey" points="409.93,-23.5829 419.802,-19.7384 409.687,-16.5871 409.93,-23.5829"/>
</g>
<!-- 2 -->
<g id="node3" class="node"><title>2</title>
<path fill="none" stroke="#56d8a9" stroke-width="2" d="M117.25,-684C117.25,-684 72.75,-684 72.75,-684 66.75,-684 60.75,-678 60.75,-672 60.75,-672 60.75,-660 60.75,-660 60.75,-654 66.75,-648 72.75,-648 72.75,-648 117.25,-648 117.25,-648 123.25,-648 129.25,-654 129.25,-660 129.25,-660 129.25,-672 129.25,-672 129.25,-678 123.25,-684 117.25,-684"/>
<text text-anchor="middle" x="95" y="-663.5" font-family="sans" font-size="10.00">trim_small</text>
</g>
<!-- 1&#45;&gt;2 -->
<g id="edge22" class="edge"><title>1&#45;&gt;2</title>
<path fill="none" stroke="grey" stroke-width="2" d="M58.8652,-719.697C64.5035,-711.474 71.3543,-701.483 77.5687,-692.421"/>
<polygon fill="grey" stroke="grey" points="80.5025,-694.331 83.2713,-684.104 74.7294,-690.372 80.5025,-694.331"/>
</g>
<!-- 2&#45;&gt;0 -->
<g id="edge16" class="edge"><title>2&#45;&gt;0</title>
<path fill="none" stroke="grey" stroke-width="2" d="M81.8652,-647.645C74.8338,-637.66 66.5113,-624.624 61,-612 44.6534,-574.558 38,-563.855 38,-523 38,-523 38,-523 38,-161 38,-106.913 73.2953,-97.4891 121,-72 170.469,-45.5685 334.704,-28.5835 409.415,-22.0425"/>
<polygon fill="grey" stroke="grey" points="410.1,-25.4966 419.763,-21.1533 409.501,-18.5223 410.1,-25.4966"/>
</g>
<!-- 4 -->
<g id="node5" class="node"><title>4</title>
<path fill="none" stroke="#566bd8" stroke-width="2" d="M172,-612C172,-612 82,-612 82,-612 76,-612 70,-606 70,-600 70,-600 70,-588 70,-588 70,-582 76,-576 82,-576 82,-576 172,-576 172,-576 178,-576 184,-582 184,-588 184,-588 184,-600 184,-600 184,-606 178,-612 172,-612"/>
<text text-anchor="middle" x="127" y="-591.5" font-family="sans" font-size="10.00">bowtie_hic_genome</text>
</g>
<!-- 2&#45;&gt;4 -->
<g id="edge24" class="edge"><title>2&#45;&gt;4</title>
<path fill="none" stroke="grey" stroke-width="2" d="M102.91,-647.697C106.553,-639.728 110.954,-630.1 114.994,-621.264"/>
<polygon fill="grey" stroke="grey" points="118.206,-622.654 119.181,-612.104 111.84,-619.744 118.206,-622.654"/>
</g>
<!-- 11 -->
<g id="node12" class="node"><title>11</title>
<path fill="none" stroke="#569ad8" stroke-width="2" d="M379,-612C379,-612 291,-612 291,-612 285,-612 279,-606 279,-600 279,-600 279,-588 279,-588 279,-582 285,-576 291,-576 291,-576 379,-576 379,-576 385,-576 391,-582 391,-588 391,-588 391,-600 391,-600 391,-606 385,-612 379,-612"/>
<text text-anchor="middle" x="335" y="-591.5" font-family="sans" font-size="10.00">bowtie_vb_genome</text>
</g>
<!-- 2&#45;&gt;11 -->
<g id="edge31" class="edge"><title>2&#45;&gt;11</title>
<path fill="none" stroke="grey" stroke-width="2" d="M129.386,-654.971C165.733,-644.37 223.945,-627.391 269.168,-614.201"/>
<polygon fill="grey" stroke="grey" points="270.279,-617.523 278.899,-611.363 268.319,-610.803 270.279,-617.523"/>
</g>
<!-- 3 -->
<g id="node4" class="node"><title>3</title>
<path fill="none" stroke="#d6d856" stroke-width="2" d="M198.25,-324C198.25,-324 99.75,-324 99.75,-324 93.75,-324 87.75,-318 87.75,-312 87.75,-312 87.75,-300 87.75,-300 87.75,-294 93.75,-288 99.75,-288 99.75,-288 198.25,-288 198.25,-288 204.25,-288 210.25,-294 210.25,-300 210.25,-300 210.25,-312 210.25,-312 210.25,-318 204.25,-324 198.25,-324"/>
<text text-anchor="middle" x="149" y="-303.5" font-family="sans" font-size="10.00">samtools_hic_convert</text>
</g>
<!-- 3&#45;&gt;0 -->
<g id="edge6" class="edge"><title>3&#45;&gt;0</title>
<path fill="none" stroke="grey" stroke-width="2" d="M124.072,-287.861C112.94,-278.67 100.999,-266.293 95,-252 68.1395,-188.001 124.758,-96.3443 155,-72 193.747,-40.8085 340.161,-26.5181 409.783,-21.378"/>
<polygon fill="grey" stroke="grey" points="410.148,-24.861 419.873,-20.6578 409.649,-17.8788 410.148,-24.861"/>
</g>
<!-- 5 -->
<g id="node6" class="node"><title>5</title>
<path fill="none" stroke="#afd856" stroke-width="2" d="M200,-252C200,-252 116,-252 116,-252 110,-252 104,-246 104,-240 104,-240 104,-228 104,-228 104,-222 110,-216 116,-216 116,-216 200,-216 200,-216 206,-216 212,-222 212,-228 212,-228 212,-240 212,-240 212,-246 206,-252 200,-252"/>
<text text-anchor="middle" x="158" y="-231.5" font-family="sans" font-size="10.00">count_mapped_hic</text>
</g>
<!-- 3&#45;&gt;5 -->
<g id="edge25" class="edge"><title>3&#45;&gt;5</title>
<path fill="none" stroke="grey" stroke-width="2" d="M151.225,-287.697C152.217,-279.983 153.408,-270.712 154.514,-262.112"/>
<polygon fill="grey" stroke="grey" points="157.997,-262.469 155.801,-252.104 151.054,-261.576 157.997,-262.469"/>
</g>
<!-- 6 -->
<g id="node7" class="node"><title>6</title>
<path fill="none" stroke="#80d856" stroke-width="2" d="M330,-252C330,-252 242,-252 242,-252 236,-252 230,-246 230,-240 230,-240 230,-228 230,-228 230,-222 236,-216 242,-216 242,-216 330,-216 330,-216 336,-216 342,-222 342,-228 342,-228 342,-240 342,-240 342,-246 336,-252 330,-252"/>
<text text-anchor="middle" x="286" y="-231.5" font-family="sans" font-size="10.00">multiBamSummary</text>
</g>
<!-- 3&#45;&gt;6 -->
<g id="edge26" class="edge"><title>3&#45;&gt;6</title>
<path fill="none" stroke="grey" stroke-width="2" d="M182.514,-287.876C200.841,-278.512 223.736,-266.814 243.328,-256.803"/>
<polygon fill="grey" stroke="grey" points="245.045,-259.857 252.357,-252.19 241.86,-253.623 245.045,-259.857"/>
</g>
<!-- 4&#45;&gt;3 -->
<g id="edge23" class="edge"><title>4&#45;&gt;3</title>
<path fill="none" stroke="grey" stroke-width="2" d="M128.31,-575.966C131.978,-528.291 142.37,-393.185 146.875,-334.63"/>
<polygon fill="grey" stroke="grey" points="150.391,-334.545 147.669,-324.306 143.412,-334.009 150.391,-334.545"/>
</g>
<!-- 5&#45;&gt;0 -->
<g id="edge8" class="edge"><title>5&#45;&gt;0</title>
<path fill="none" stroke="grey" stroke-width="2" d="M154.372,-215.847C148.464,-182.636 141.098,-109.527 181,-72 213.574,-41.365 344.226,-27.0141 409.498,-21.647"/>
<polygon fill="grey" stroke="grey" points="410.071,-25.1127 419.763,-20.8329 409.517,-18.1346 410.071,-25.1127"/>
</g>
<!-- 6&#45;&gt;0 -->
<g id="edge10" class="edge"><title>6&#45;&gt;0</title>
<path fill="none" stroke="grey" stroke-width="2" d="M235.761,-215.986C208.467,-205.617 178.734,-192.081 171,-180 162.373,-166.525 166.218,-159.269 171,-144 182.643,-106.821 188.781,-93.9041 221,-72 278.786,-32.7137 361.968,-22.3316 409.637,-19.7221"/>
<polygon fill="grey" stroke="grey" points="409.988,-23.2098 419.817,-19.2543 409.666,-16.2171 409.988,-23.2098"/>
</g>
<!-- 7 -->
<g id="node8" class="node"><title>7</title>
<path fill="none" stroke="#56d86b" stroke-width="2" d="M257.25,-180C257.25,-180 192.75,-180 192.75,-180 186.75,-180 180.75,-174 180.75,-168 180.75,-168 180.75,-156 180.75,-156 180.75,-150 186.75,-144 192.75,-144 192.75,-144 257.25,-144 257.25,-144 263.25,-144 269.25,-150 269.25,-156 269.25,-156 269.25,-168 269.25,-168 269.25,-174 263.25,-180 257.25,-180"/>
<text text-anchor="middle" x="225" y="-159.5" font-family="sans" font-size="10.00">plotCorrelation</text>
</g>
<!-- 6&#45;&gt;7 -->
<g id="edge27" class="edge"><title>6&#45;&gt;7</title>
<path fill="none" stroke="grey" stroke-width="2" d="M270.921,-215.697C263.608,-207.305 254.69,-197.07 246.665,-187.861"/>
<polygon fill="grey" stroke="grey" points="249.114,-185.344 239.905,-180.104 243.836,-189.943 249.114,-185.344"/>
</g>
<!-- 8 -->
<g id="node9" class="node"><title>8</title>
<path fill="none" stroke="#d8ac56" stroke-width="2" d="M330.25,-180C330.25,-180 299.75,-180 299.75,-180 293.75,-180 287.75,-174 287.75,-168 287.75,-168 287.75,-156 287.75,-156 287.75,-150 293.75,-144 299.75,-144 299.75,-144 330.25,-144 330.25,-144 336.25,-144 342.25,-150 342.25,-156 342.25,-156 342.25,-168 342.25,-168 342.25,-174 336.25,-180 330.25,-180"/>
<text text-anchor="middle" x="315" y="-159.5" font-family="sans" font-size="10.00">plotPCA</text>
</g>
<!-- 6&#45;&gt;8 -->
<g id="edge28" class="edge"><title>6&#45;&gt;8</title>
<path fill="none" stroke="grey" stroke-width="2" d="M293.169,-215.697C296.435,-207.813 300.374,-198.304 304.002,-189.546"/>
<polygon fill="grey" stroke="grey" points="307.32,-190.683 307.914,-180.104 300.853,-188.003 307.32,-190.683"/>
</g>
<!-- 7&#45;&gt;0 -->
<g id="edge13" class="edge"><title>7&#45;&gt;0</title>
<path fill="none" stroke="grey" stroke-width="2" d="M222.809,-143.903C221.279,-124.035 222.075,-91.4919 240,-72 262.718,-47.2969 356.729,-31.0374 409.906,-23.6263"/>
<polygon fill="grey" stroke="grey" points="410.525,-27.0745 419.964,-22.2621 409.584,-20.138 410.525,-27.0745"/>
</g>
<!-- 9 -->
<g id="node10" class="node"><title>9</title>
<path fill="none" stroke="#56d8c1" stroke-width="2" d="M293,-108C293,-108 261,-108 261,-108 255,-108 249,-102 249,-96 249,-96 249,-84 249,-84 249,-78 255,-72 261,-72 261,-72 293,-72 293,-72 299,-72 305,-78 305,-84 305,-84 305,-96 305,-96 305,-102 299,-108 293,-108"/>
<text text-anchor="middle" x="277" y="-87.5" font-family="sans" font-size="10.00">multiQC</text>
</g>
<!-- 7&#45;&gt;9 -->
<g id="edge29" class="edge"><title>7&#45;&gt;9</title>
<path fill="none" stroke="grey" stroke-width="2" d="M237.854,-143.697C244.025,-135.389 251.537,-125.277 258.324,-116.141"/>
<polygon fill="grey" stroke="grey" points="261.14,-118.219 264.294,-108.104 255.521,-114.045 261.14,-118.219"/>
</g>
<!-- 8&#45;&gt;0 -->
<g id="edge5" class="edge"><title>8&#45;&gt;0</title>
<path fill="none" stroke="grey" stroke-width="2" d="M319.725,-143.85C325.753,-124.528 337.766,-93.0752 357,-72 371.781,-55.8041 392.679,-43.0834 410.617,-34.1684"/>
<polygon fill="grey" stroke="grey" points="412.154,-37.313 419.68,-29.8551 409.146,-30.9924 412.154,-37.313"/>
</g>
<!-- 9&#45;&gt;0 -->
<g id="edge17" class="edge"><title>9&#45;&gt;0</title>
<path fill="none" stroke="grey" stroke-width="2" d="M305.072,-77.4409C333.874,-65.5814 378.814,-47.0764 410.392,-34.0737"/>
<polygon fill="grey" stroke="grey" points="411.817,-37.2724 419.731,-30.2285 409.151,-30.7997 411.817,-37.2724"/>
</g>
<!-- 10 -->
<g id="node11" class="node"><title>10</title>
<path fill="none" stroke="#97d856" stroke-width="2" d="M460.25,-540C460.25,-540 363.75,-540 363.75,-540 357.75,-540 351.75,-534 351.75,-528 351.75,-528 351.75,-516 351.75,-516 351.75,-510 357.75,-504 363.75,-504 363.75,-504 460.25,-504 460.25,-504 466.25,-504 472.25,-510 472.25,-516 472.25,-516 472.25,-528 472.25,-528 472.25,-534 466.25,-540 460.25,-540"/>
<text text-anchor="middle" x="412" y="-519.5" font-family="sans" font-size="10.00">samtools_vb_convert</text>
</g>
<!-- 10&#45;&gt;0 -->
<g id="edge9" class="edge"><title>10&#45;&gt;0</title>
<path fill="none" stroke="grey" stroke-width="2" d="M403.703,-503.971C391.723,-477.77 371,-425.701 371,-379 371,-379 371,-379 371,-161 371,-115.641 401.517,-70.7492 423.875,-43.9457"/>
<polygon fill="grey" stroke="grey" points="426.645,-46.0926 430.509,-36.2276 421.336,-41.5297 426.645,-46.0926"/>
</g>
<!-- 12 -->
<g id="node13" class="node"><title>12</title>
<path fill="none" stroke="#56a9d8" stroke-width="2" d="M493,-468C493,-468 411,-468 411,-468 405,-468 399,-462 399,-456 399,-456 399,-444 399,-444 399,-438 405,-432 411,-432 411,-432 493,-432 493,-432 499,-432 505,-438 505,-444 505,-444 505,-456 505,-456 505,-462 499,-468 493,-468"/>
<text text-anchor="middle" x="452" y="-447.5" font-family="sans" font-size="10.00">count_mapped_vb</text>
</g>
<!-- 10&#45;&gt;12 -->
<g id="edge32" class="edge"><title>10&#45;&gt;12</title>
<path fill="none" stroke="grey" stroke-width="2" d="M421.888,-503.697C426.489,-495.644 432.06,-485.894 437.153,-476.982"/>
<polygon fill="grey" stroke="grey" points="440.304,-478.523 442.226,-468.104 434.226,-475.05 440.304,-478.523"/>
</g>
<!-- 14 -->
<g id="node15" class="node"><title>14</title>
<path fill="none" stroke="#d85656" stroke-width="2" d="M597,-468C597,-468 535,-468 535,-468 529,-468 523,-462 523,-456 523,-456 523,-444 523,-444 523,-438 529,-432 535,-432 535,-432 597,-432 597,-432 603,-432 609,-438 609,-444 609,-444 609,-456 609,-456 609,-462 603,-468 597,-468"/>
<text text-anchor="middle" x="566" y="-447.5" font-family="sans" font-size="10.00">featureCounts</text>
</g>
<!-- 10&#45;&gt;14 -->
<g id="edge34" class="edge"><title>10&#45;&gt;14</title>
<path fill="none" stroke="grey" stroke-width="2" d="M449.673,-503.876C470.632,-494.349 496.905,-482.407 519.177,-472.283"/>
<polygon fill="grey" stroke="grey" points="520.794,-475.393 528.45,-468.068 517.898,-469.02 520.794,-475.393"/>
</g>
<!-- 11&#45;&gt;10 -->
<g id="edge30" class="edge"><title>11&#45;&gt;10</title>
<path fill="none" stroke="grey" stroke-width="2" d="M354.034,-575.697C363.545,-567.05 375.207,-556.449 385.57,-547.027"/>
<polygon fill="grey" stroke="grey" points="388.14,-549.421 393.185,-540.104 383.431,-544.241 388.14,-549.421"/>
</g>
<!-- 12&#45;&gt;0 -->
<g id="edge20" class="edge"><title>12&#45;&gt;0</title>
<path fill="none" stroke="grey" stroke-width="2" d="M443.09,-431.582C430.495,-405.303 409,-353.623 409,-307 409,-307 409,-307 409,-161 409,-119.633 424.235,-73.7216 435.412,-45.6051"/>
<polygon fill="grey" stroke="grey" points="438.756,-46.6733 439.31,-36.0929 432.279,-44.0187 438.756,-46.6733"/>
</g>
<!-- 13 -->
<g id="node14" class="node"><title>13</title>
<path fill="none" stroke="#d88556" stroke-width="2" d="M736.25,-540C736.25,-540 691.75,-540 691.75,-540 685.75,-540 679.75,-534 679.75,-528 679.75,-528 679.75,-516 679.75,-516 679.75,-510 685.75,-504 691.75,-504 691.75,-504 736.25,-504 736.25,-504 742.25,-504 748.25,-510 748.25,-516 748.25,-516 748.25,-528 748.25,-528 748.25,-534 742.25,-540 736.25,-540"/>
<text text-anchor="middle" x="714" y="-519.5" font-family="sans" font-size="10.00">gff_extract</text>
</g>
<!-- 13&#45;&gt;0 -->
<g id="edge3" class="edge"><title>13&#45;&gt;0</title>
<path fill="none" stroke="grey" stroke-width="2" d="M748.558,-506.491C792.574,-485.425 863,-441.892 863,-379 863,-379 863,-379 863,-161 863,-120.553 873.688,-99.4692 844,-72 792.196,-24.0679 572.92,-18.8266 484.344,-18.711"/>
<polygon fill="grey" stroke="grey" points="484.207,-15.211 474.21,-18.7198 484.213,-22.211 484.207,-15.211"/>
</g>
<!-- 13&#45;&gt;14 -->
<g id="edge33" class="edge"><title>13&#45;&gt;14</title>
<path fill="none" stroke="grey" stroke-width="2" d="M679.674,-504.765C659.276,-495.117 633.168,-482.769 611.118,-472.339"/>
<polygon fill="grey" stroke="grey" points="612.481,-469.113 601.945,-468.001 609.488,-475.441 612.481,-469.113"/>
</g>
<!-- 14&#45;&gt;0 -->
<g id="edge1" class="edge"><title>14&#45;&gt;0</title>
<path fill="none" stroke="grey" stroke-width="2" d="M522.843,-435.74C502.691,-427.422 480.092,-414.658 466,-396 441.623,-363.725 447,-347.447 447,-307 447,-307 447,-307 447,-161 447,-120.996 447,-74.6528 447,-46.0798"/>
<polygon fill="grey" stroke="grey" points="450.5,-46.0492 447,-36.0493 443.5,-46.0493 450.5,-46.0492"/>
</g>
<!-- 15 -->
<g id="node16" class="node"><title>15</title>
<path fill="none" stroke="#d8c356" stroke-width="2" d="M565,-396C565,-396 487,-396 487,-396 481,-396 475,-390 475,-384 475,-384 475,-372 475,-372 475,-366 481,-360 487,-360 487,-360 565,-360 565,-360 571,-360 577,-366 577,-372 577,-372 577,-384 577,-384 577,-390 571,-396 565,-396"/>
<text text-anchor="middle" x="526" y="-375.5" font-family="sans" font-size="10.00">format_fC_output</text>
</g>
<!-- 14&#45;&gt;15 -->
<g id="edge35" class="edge"><title>14&#45;&gt;15</title>
<path fill="none" stroke="grey" stroke-width="2" d="M556.112,-431.697C551.511,-423.644 545.94,-413.894 540.847,-404.982"/>
<polygon fill="grey" stroke="grey" points="543.774,-403.05 535.774,-396.104 537.696,-406.523 543.774,-403.05"/>
</g>
<!-- 16 -->
<g id="node17" class="node"><title>16</title>
<path fill="none" stroke="#d89556" stroke-width="2" d="M721,-396C721,-396 607,-396 607,-396 601,-396 595,-390 595,-384 595,-384 595,-372 595,-372 595,-366 601,-360 607,-360 607,-360 721,-360 721,-360 727,-360 733,-366 733,-372 733,-372 733,-384 733,-384 733,-390 727,-396 721,-396"/>
<text text-anchor="middle" x="664" y="-375.5" font-family="sans" font-size="10.00">get_genome_unassigned</text>
</g>
<!-- 14&#45;&gt;16 -->
<g id="edge36" class="edge"><title>14&#45;&gt;16</title>
<path fill="none" stroke="grey" stroke-width="2" d="M589.973,-431.876C602.55,-422.893 618.132,-411.763 631.752,-402.034"/>
<polygon fill="grey" stroke="grey" points="633.831,-404.85 639.934,-396.19 629.763,-399.154 633.831,-404.85"/>
</g>
<!-- 15&#45;&gt;0 -->
<g id="edge7" class="edge"><title>15&#45;&gt;0</title>
<path fill="none" stroke="grey" stroke-width="2" d="M517.703,-359.971C505.723,-333.77 485,-281.701 485,-235 485,-235 485,-235 485,-161 485,-119.633 469.765,-73.7216 458.588,-45.6051"/>
<polygon fill="grey" stroke="grey" points="461.721,-44.0187 454.69,-36.0929 455.244,-46.6733 461.721,-44.0187"/>
</g>
<!-- 16&#45;&gt;0 -->
<g id="edge4" class="edge"><title>16&#45;&gt;0</title>
<path fill="none" stroke="grey" stroke-width="2" d="M627.322,-359.884C585.544,-337.555 523,-294.235 523,-235 523,-235 523,-235 523,-161 523,-115.641 492.483,-70.7492 470.125,-43.9457"/>
<polygon fill="grey" stroke="grey" points="472.664,-41.5297 463.491,-36.2276 467.355,-46.0926 472.664,-41.5297"/>
</g>
<!-- 17 -->
<g id="node18" class="node"><title>17</title>
<path fill="none" stroke="#68d856" stroke-width="2" d="M713,-324C713,-324 609,-324 609,-324 603,-324 597,-318 597,-312 597,-312 597,-300 597,-300 597,-294 603,-288 609,-288 609,-288 713,-288 713,-288 719,-288 725,-294 725,-300 725,-300 725,-312 725,-312 725,-318 719,-324 713,-324"/>
<text text-anchor="middle" x="661" y="-303.5" font-family="sans" font-size="10.00">featureCounts_repeats</text>
</g>
<!-- 16&#45;&gt;17 -->
<g id="edge37" class="edge"><title>16&#45;&gt;17</title>
<path fill="none" stroke="grey" stroke-width="2" d="M663.258,-359.697C662.928,-351.983 662.531,-342.712 662.162,-334.112"/>
<polygon fill="grey" stroke="grey" points="665.658,-333.945 661.733,-324.104 658.665,-334.245 665.658,-333.945"/>
</g>
<!-- 17&#45;&gt;0 -->
<g id="edge11" class="edge"><title>17&#45;&gt;0</title>
<path fill="none" stroke="grey" stroke-width="2" d="M625.621,-287.917C610.767,-279.099 594.531,-267.013 584,-252 536.52,-184.31 586.84,-137.972 537,-72 523.503,-54.1351 502.089,-41.1737 483.534,-32.5417"/>
<polygon fill="grey" stroke="grey" points="484.712,-29.2365 474.149,-28.4194 481.897,-35.6455 484.712,-29.2365"/>
</g>
<!-- 18 -->
<g id="node19" class="node"><title>18</title>
<path fill="none" stroke="#d86e56" stroke-width="2" d="M716.25,-252C716.25,-252 605.75,-252 605.75,-252 599.75,-252 593.75,-246 593.75,-240 593.75,-240 593.75,-228 593.75,-228 593.75,-222 599.75,-216 605.75,-216 605.75,-216 716.25,-216 716.25,-216 722.25,-216 728.25,-222 728.25,-228 728.25,-228 728.25,-240 728.25,-240 728.25,-246 722.25,-252 716.25,-252"/>
<text text-anchor="middle" x="661" y="-231.5" font-family="sans" font-size="10.00">get_repeats_unassigned</text>
</g>
<!-- 17&#45;&gt;18 -->
<g id="edge38" class="edge"><title>17&#45;&gt;18</title>
<path fill="none" stroke="grey" stroke-width="2" d="M661,-287.697C661,-279.983 661,-270.712 661,-262.112"/>
<polygon fill="grey" stroke="grey" points="664.5,-262.104 661,-252.104 657.5,-262.104 664.5,-262.104"/>
</g>
<!-- 18&#45;&gt;0 -->
<g id="edge2" class="edge"><title>18&#45;&gt;0</title>
<path fill="none" stroke="grey" stroke-width="2" d="M647.831,-215.861C640.358,-205.732 631.108,-192.482 624,-180 597.915,-134.198 612.888,-108.644 575,-72 549.902,-47.7255 512.107,-33.9385 484.087,-26.5506"/>
<polygon fill="grey" stroke="grey" points="484.796,-23.1205 474.247,-24.1107 483.111,-29.9147 484.796,-23.1205"/>
</g>
<!-- 19 -->
<g id="node20" class="node"><title>19</title>
<path fill="none" stroke="#5682d8" stroke-width="2" d="M756.25,-180C756.25,-180 645.75,-180 645.75,-180 639.75,-180 633.75,-174 633.75,-168 633.75,-168 633.75,-156 633.75,-156 633.75,-150 639.75,-144 645.75,-144 645.75,-144 756.25,-144 756.25,-144 762.25,-144 768.25,-150 768.25,-156 768.25,-156 768.25,-168 768.25,-168 768.25,-174 762.25,-180 756.25,-180"/>
<text text-anchor="middle" x="701" y="-159.5" font-family="sans" font-size="10.00">bam_to_collapsed_fasta</text>
</g>
<!-- 18&#45;&gt;19 -->
<g id="edge39" class="edge"><title>18&#45;&gt;19</title>
<path fill="none" stroke="grey" stroke-width="2" d="M670.888,-215.697C675.489,-207.644 681.06,-197.894 686.153,-188.982"/>
<polygon fill="grey" stroke="grey" points="689.304,-190.523 691.226,-180.104 683.226,-187.05 689.304,-190.523"/>
</g>
<!-- 19&#45;&gt;0 -->
<g id="edge21" class="edge"><title>19&#45;&gt;0</title>
<path fill="none" stroke="grey" stroke-width="2" d="M685.715,-143.676C665.186,-120.75 629.394,-82.0522 613,-72 572.509,-47.1718 519.247,-32.8628 484.108,-25.5088"/>
<polygon fill="grey" stroke="grey" points="484.755,-22.069 474.261,-23.5309 483.376,-28.9319 484.755,-22.069"/>
</g>
<!-- 20 -->
<g id="node21" class="node"><title>20</title>
<path fill="none" stroke="#59d856" stroke-width="2" d="M737,-108C737,-108 677,-108 677,-108 671,-108 665,-102 665,-96 665,-96 665,-84 665,-84 665,-78 671,-72 677,-72 677,-72 737,-72 737,-72 743,-72 749,-78 749,-84 749,-84 749,-96 749,-96 749,-102 743,-108 737,-108"/>
<text text-anchor="middle" x="707" y="-87.5" font-family="sans" font-size="10.00">map_mirdeep</text>
</g>
<!-- 19&#45;&gt;20 -->
<g id="edge40" class="edge"><title>19&#45;&gt;20</title>
<path fill="none" stroke="grey" stroke-width="2" d="M702.483,-143.697C703.144,-135.983 703.939,-126.712 704.676,-118.112"/>
<polygon fill="grey" stroke="grey" points="708.167,-118.367 705.534,-108.104 701.193,-117.769 708.167,-118.367"/>
</g>
<!-- 23 -->
<g id="node24" class="node"><title>23</title>
<path fill="none" stroke="#56d89a" stroke-width="2" d="M823,-108C823,-108 779,-108 779,-108 773,-108 767,-102 767,-96 767,-96 767,-84 767,-84 767,-78 773,-72 779,-72 779,-72 823,-72 823,-72 829,-72 835,-78 835,-84 835,-84 835,-96 835,-96 835,-102 829,-108 823,-108"/>
<text text-anchor="middle" x="801" y="-87.5" font-family="sans" font-size="10.00">miRDeep2</text>
</g>
<!-- 19&#45;&gt;23 -->
<g id="edge41" class="edge"><title>19&#45;&gt;23</title>
<path fill="none" stroke="grey" stroke-width="2" d="M725.463,-143.876C738.296,-134.893 754.196,-123.763 768.094,-114.034"/>
<polygon fill="grey" stroke="grey" points="770.258,-116.792 776.443,-108.19 766.244,-111.057 770.258,-116.792"/>
</g>
<!-- 20&#45;&gt;0 -->
<g id="edge12" class="edge"><title>20&#45;&gt;0</title>
<path fill="none" stroke="grey" stroke-width="2" d="M664.856,-76.0065C660.189,-74.6271 655.499,-73.2667 651,-72 592.877,-55.6347 524.923,-38.3458 483.963,-28.1238"/>
<polygon fill="grey" stroke="grey" points="484.702,-24.7012 474.153,-25.6821 483.011,-31.4939 484.702,-24.7012"/>
</g>
<!-- 21 -->
<g id="node22" class="node"><title>21</title>
<path fill="none" stroke="#56d882" stroke-width="2" d="M1001,-108C1001,-108 903,-108 903,-108 897,-108 891,-102 891,-96 891,-96 891,-84 891,-84 891,-78 897,-72 903,-72 903,-72 1001,-72 1001,-72 1007,-72 1013,-78 1013,-84 1013,-84 1013,-96 1013,-96 1013,-102 1007,-108 1001,-108"/>
<text text-anchor="middle" x="952" y="-87.5" font-family="sans" font-size="10.00">get_fasta_pre_miRNA</text>
</g>
<!-- 21&#45;&gt;0 -->
<g id="edge14" class="edge"><title>21&#45;&gt;0</title>
<path fill="none" stroke="grey" stroke-width="2" d="M890.706,-74.5805C886.079,-73.6533 881.472,-72.7804 877,-72 732.926,-46.8578 559.651,-29.3334 484.645,-22.3589"/>
<polygon fill="grey" stroke="grey" points="484.586,-18.8387 474.307,-21.4068 483.944,-25.8092 484.586,-18.8387"/>
</g>
<!-- 22 -->
<g id="node23" class="node"><title>22</title>
<path fill="none" stroke="#56c1d8" stroke-width="2" d="M1114.25,-108C1114.25,-108 1043.75,-108 1043.75,-108 1037.75,-108 1031.75,-102 1031.75,-96 1031.75,-96 1031.75,-84 1031.75,-84 1031.75,-78 1037.75,-72 1043.75,-72 1043.75,-72 1114.25,-72 1114.25,-72 1120.25,-72 1126.25,-78 1126.25,-84 1126.25,-84 1126.25,-96 1126.25,-96 1126.25,-102 1120.25,-108 1114.25,-108"/>
<text text-anchor="middle" x="1079" y="-87.5" font-family="sans" font-size="10.00">format_genome</text>
</g>
<!-- 22&#45;&gt;0 -->
<g id="edge19" class="edge"><title>22&#45;&gt;0</title>
<path fill="none" stroke="grey" stroke-width="2" d="M1031.59,-74.095C1028.36,-73.3169 1025.14,-72.6073 1022,-72 821.752,-33.3054 576.635,-22.6399 484.432,-19.8916"/>
<polygon fill="grey" stroke="grey" points="484.307,-16.3867 474.212,-19.6011 484.108,-23.3839 484.307,-16.3867"/>
</g>
<!-- 23&#45;&gt;0 -->
<g id="edge15" class="edge"><title>23&#45;&gt;0</title>
<path fill="none" stroke="grey" stroke-width="2" d="M766.952,-74.7995C763.951,-73.7736 760.938,-72.8214 758,-72 661.168,-44.9251 543.289,-29.427 484.341,-22.8248"/>
<polygon fill="grey" stroke="grey" points="484.36,-19.306 474.038,-21.6948 483.597,-26.2643 484.36,-19.306"/>
</g>
</g>
</svg>
